<?xml version="1.0" encoding="UTF-8"?>
<svg id="Layer_1" data-name="Layer 1" xmlns="http://www.w3.org/2000/svg" viewBox="0 0 1354 421.5">
  <defs>
    <style>
      .cls-1 {
        fill: #f05a31;
      }

      .cls-2 {
        fill: none;
        stroke: #f05a31;
        stroke-miterlimit: 10;
        stroke-width: 22px;
      }

      .cls-3 {
        stroke: #000;
        stroke-linecap: round;
        stroke-linejoin: round;
        stroke-width: 10px;
      }
    </style>
  </defs>
  <g>
    <path d="M141.61,134.26c3.21,0,5.77,.96,8.66,1.28,3.21,2.89,5.77,5.45,6.09,9.62,.32,9.3,1.28,18.92,1.28,26.61,.96,31.74,1.92,63.17,3.53,93.31,0,1.6,.32,3.85,1.28,4.17,.64,.32,.32-1.6,.96-4.17,6.73-34.95,15.39-81.45,25.33-120.56,1.92-7.05,3.21-13.79,5.77-20.52,1.6,0,6.73-1.28,9.3-1.28,4.17,0,6.73,3.85,5.77,8.02-8.98,36.87-17.31,75.67-25.01,112.87-4.17,18.28-5.77,33.03-9.3,52.59-.96,4.17-2.56,8.34-2.56,12.5-.32,5.45-3.85,8.66-8.66,8.66-1.28,0-2.56-.32-4.17-.96-3.85-2.25-6.41-1.6-9.94-5.13-1.28-1.6-1.6-4.17-1.6-5.77,0-3.85-.32-6.41-.32-9.3-3.53-22.77-5.13-45.53-6.09-68.3-1.28-27.58,0-56.75-4.49-84.65-1.28-2.57,0-5.45-.32-8.34,1.6-.64,3.21-.64,4.49-.64Z"/>
    <path d="M243.58,207.04c.96-17.31,.96-52.59,2.24-68.94,.96-7.7-2.24-16.67,8.34-18.28,3.21-.32,11.54,4.49,11.86,8.02,.32,1.92-.64,3.85-.96,5.45-5.13,37.52-4.49,60.92-4.81,93.31-.32,19.24-.64,39.12-1.28,58.36-.32,8.66,.64,33.67-8.66,33.67-7.7,0-15.71-8.34-10.9-8.34,1.92-16.99,2.89-67.02,4.17-103.25Z"/>
    <path d="M317.32,304.52c17.32-.64,23.41-29.18,23.09-42.97-.96-33.35-33.67-41.36-35.27-83.37-.32-20.84,26.61-58.68,48.42-59.32,6.73,0,14.43,5.45,14.75,12.5,0,3.53-2.89,6.09-6.41,6.09-.96,0-2.24-.32-3.53-.96-19.88,.64-37.84,27.58-37.2,45.85,.64,25.65,33.67,36.55,35.27,80.16,.32,20.84-14.11,57.08-37.52,58.04-7.7,.32-15.07-5.45-16.67-12.83,1.6-3.21,3.85-6.73,6.73-7.05,2.25,3.53,5.77,3.85,8.34,3.85Z"/>
  </g>
  <g>
    <path d="M400.55,217.67c.61-11.02,.61-33.47,1.43-43.87,.61-4.9-1.43-10.61,5.31-11.63,2.04-.2,7.35,2.86,7.55,5.1,.2,1.22-.41,2.45-.61,3.47-3.27,23.87-2.86,38.77-3.06,59.38-.2,12.24-.41,24.89-.82,37.14-.2,5.51,.41,21.43-5.51,21.43-4.9,0-10-5.3-6.94-5.3,1.22-10.82,1.84-42.65,2.65-65.71Z"/>
    <path d="M446.87,175.22c-4.08,.2-7.35-2.86-7.55-7.14,0-3.06,.61-5.92,4.08-5.92,1.22,0,2.86,.61,4.08,.61,3.06,.2,5.92,.41,8.98,.41l6.12-.41c2.04,0,4.08-.2,6.33-.2,4.29,0,8.57,.2,12.45,.82,2.65,.2,3.06,1.63,3.88,3.47,.2,2.04-1.02,3.88-2.65,4.9l-14.28,.41c-1.43,6.94-2.45,13.26-3.26,20-3.67,27.34-6.53,55.3-5.71,82.85,0,1.84,.2,3.88,1.02,5.3,.2,1.84,.41,3.67,.41,5.31,0,3.06-2.65,4.29-5.31,4.29-6.33,0-6.33-6.73-6.33-11.83-1.02-31.02,2.65-62.24,6.12-93.05,.2-4.08,.82-7.75,.61-11.63-3.67,.61-5.1,1.84-8.98,1.84Z"/>
  </g>
  <g>
    <g>
      <path d="M16.28,164.08c3.44,0,5.67,1.82,7.29,4.66,4.25,3.44,14.79,7.7,15.2,25.73,.41,16.01-8.71,27.76-15.4,35.46,1.01,1.01,5.07,11.95,5.47,12.97,5.27,12.16,12.36,24.72,13.78,27.35,.81,1.82-1.22,2.63-3.04,2.63h-1.21c-8.31-1.22-18.44-26.54-21.68-33.43,0,7.29-.61,11.14-.81,16.61-.2,2.84-1.01,15.2-.81,24.52,.2,5.88-.2,10.33-2.63,10.33-5.07,0-7.5-1.22-7.7-6.69-.2-8.11,.2-16.21,.61-24.11,.61-16.62,1.22-33.03,2.03-49.44,.41-6.08,2.43-24.52,2.03-30.39-.2-6.08-3.04-6.69-3.04-8.1,3.04-3.44,5.07-7.9,9.93-8.11Zm12.36,30.8c.2-7.9-4.25-13.37-7.9-13.98-.61,8.71-2.43,30.19-3.24,38.9,4.86-3.45,10.74-13.78,11.14-24.92Z"/>
      <path d="M74.83,169.14c.81-2.03,1.82-3.24,4.25-3.45,2.23-.2,5.67-.61,9.32-.61,6.08,0,12.56,1.22,12.97,7.09,.2,2.43-1.42,3.44-3.65,3.44l-17.43,1.01c.81,.81,2.43,2.23,2.43,3.65,0,1.62-.81,3.04-1.22,4.86-1.82,9.52-2.23,24.52-3.24,33.03l17.22,.61c2.43,0,4.05,.61,4.05,2.84,0,1.62-1.42,3.85-3.04,4.46-1.22,0-2.84,.81-4.05,1.01-3.85,.41-9.93,.61-13.78,1.62-2.43,.61-1.82,3.44-2.23,6.28-1.82,13.78-2.23,26.34-2.03,40.52,4.86-1.42,10.33-4.46,14.99-4.46,3.44,0,8.1,1.22,8.1,5.27,0,2.43-1.62,3.24-4.05,3.44-8.51,1.22-15.4,6.89-25.73,7.09-3.85,0-4.66-4.66-4.66-7.5,0-12.76,.41-25.73,1.42-38.29,1.42-19.65,3.65-39.71,5.47-59.37,.61-5.27,.2-5.27,5.27-8.11l-.41-4.46Z"/>
    </g>
    <path class="cls-3" d="M17.78,228.56s11.03,25.08,19.4,40.33c6.3,11.46,12.49,21.44,14.86,21.23"/>
  </g>
  <g>
    <path d="M554.64,181.06c-2.1,0-3.9,0-6,.3-2.55,9.6-3.15,14.4-4.5,24.3-.6,1.95,0,4.2-.15,6.3-.15,1.8-.9,3.75-3,3.75-1.5,0-5.25-1.95-5.4-3.9-1.05-9.45,13.05-65.85,15.75-78,.45-2.25,.6-6,1.2-8.4,.6-2.25,1.65-2.7,4.35-2.7,2.85,0,5.55,2.25,5.85,4.8,0,5.85,.15,11.25,1.05,17.1l1.8,20.55c1.05,11.85,1.35,23.55,2.4,35.25,.3,3.15,1.2,6.45,1.35,9.6,.3,2.55-.9,3.9-3.45,3.9-4.05,0-4.95-3.9-5.25-7.2-.75-10.35-.9-15.45-1.95-25.95-1.2,.3-2.55,.3-4.05,.3Zm1.35-33.9c-1.8,7.2-4.2,19.2-5.55,26.4,.9,.3,3,.45,4.05,.45,1.2,0,2.4-.3,3.45-.75l-1.35-26.1h-.6Z"/>
    <path d="M612.84,142.36c-1.05,10.35-3.9,51.15-3.6,63.15,.15,1.8,1.05,3.3,1.05,5.1,0,1.95-1.65,3-3.45,3-3.9,.15-5.4-2.7-5.55-6.15-.3-12.9,1.05-27.15,1.95-39.75,.6-9.9,1.95-25.05,2.1-32.55,0-1.8-.9-1.8-2.7-1.8-2.85,.15-1.2,.3-3.9,.45-2.7,.15-3.6-1.8-3.9-4.05-.75-.6-.6-1.65-.6-2.4-.15-1.2,.9-2.25,1.95-2.25h.3c1.35,0,2.55,.6,3.9,.6h.3c1.8-.15,3.75-.15,5.85-.15,6.45,0,13.2,.45,14.85,1.2,1.65,.9,2.55,2.4,2.7,4.2,0,1.35-1.05,2.55-2.4,2.4h-6.9c-1.65,2.85-1.65,6-1.95,9Z"/>
    <path d="M642.09,214.06c-3.9,0-7.2-3-8.85-6.3-1.2-2.4-1.35-5.1-1.65-7.65-1.5-12.6-.6-23.25,.45-35.25,1.05-11.25,3-21.75,5.7-32.85,.6-2.55,2.55-7.65,5.25-7.65,.6,0,1.2,.3,1.8,.75,.75,.45,1.2,.6,1.65,.6,.6,0,1.05-.15,1.8-.15,2.1,.45,3.9,.75,6.15,2.25,.6,.3,1.5,1.5,2.1,3.15,4.2,9.45,4.65,22.95,3,43.05-.9,8.85-4.65,40.05-17.4,40.05Zm.15-7.05c.15,0,.45-.6,.75-1.05,4.8-9.3,7.5-22.8,8.85-33,.9-8.25,2.1-37.05-4.35-42.9-5.25,7.05-12.3,68.1-5.7,76.5,.15,.3,.3,.45,.45,.45Z"/>
    <path d="M696.39,136.96c2.85,9,3.3,20.55,2.4,31.95-1.05,12.45-2.25,27.75-7.65,39.15-1.95,3.45-4.8,7.05-9.75,6.9-2.7-.3-5.7-.9-7.2-3.3-3-3-4.65-7.65-5.1-11.7-1.95-10.95-.6-23.25,.9-34.65,1.95-14.7,5.55-28.95,9.45-43.5,.75-2.7,2.4-4.35,4.35-4.35,1.05,0,2.25,.45,3.45,1.5,1.5,1.5,2.1,2.1,1.05,4.35-.6,1.2-.75,1.65-1.35,2.85,4.8,2.85,7.95,4.95,9.45,10.8Zm-13.95,70.65c4.35-6,7.65-24.75,8.55-40.05,.45-8.85,1.05-31.35-5.7-34.8-3.3,11.7-5.4,22.5-7.05,34.35-1.2,10.2-3.75,36,2.55,41.4,.6,0,1.35-.15,1.65-.9Z"/>
    <path d="M730.44,201.01c1.05-.15,1.95,1.2,1.95,2.4,0,5.4-14.1,7.8-18.15,9-.3,.15-.9,.15-1.35,.15-3.15,0-4.95-1.65-6.3-4.2-.3-1.5,1.35-5.85,1.35-8.55,0-19.5,1.8-39.45,3-59.1,.3-3.75,.45-7.65,.45-11.7,0-3.6,1.8-3.6,4.8-3.6,2.1,0,3.75,2.25,3.6,4.2-2.4,22.05-4.8,49.2-4.8,74.1,5.25,0,12-1.8,15.45-2.7Z"/>
    <path d="M769.43,132.76c3.9,0,4.35,5.55,2.1,7.95-6.3,6.3-14.85,17.55-17.55,22.2,0,5.4,18.6,30.45,18.6,31.95,0,1.35-1.95,1.8-3.15,1.8-6.15,0-15.75-16.95-19.05-22.2,0,.9-.15,2.1-.3,3.15-.9,10.5-1.95,22.95-1.65,33.45,0,1.5-.15,3.15-2.85,3.15-.15,.15-.45,.3-.6,.3-3.9,0-4.35-8.1-4.35-10.95,0-12,1.2-27.9,1.95-40.05,.6-6.75,1.35-15.15,1.95-22.05,.3-4.95,.75-9.75,1.2-15,.15-1.5,1.2-2.4,2.7-2.4h.3c2.85,0,5.4,3.3,5.25,6.3-.3,6-1.8,15.15-1.95,21,3.75-2.4,13.35-18.6,17.4-18.6Z"/>
    <path d="M789.38,127.66c-1.65,25.2-1.65,55.95-4.2,82.65-.3,2.1-.6,2.85-2.4,2.85-.6,0-1.2,0-2.1-.15-1.8-.3-3-3.6-2.7-5.4-.3-.3-.15-.9-.15-1.35,1.65-23.1,2.85-47.55,3.15-70.35,0-2.85,0-5.25,.3-8.1,.6-2.85,2.1-3.75,4.8-3.75,1.65,1.2,3.6,.9,3.3,3.6Z"/>
    <path d="M815.63,142.36c-1.05,10.35-3.9,51.15-3.6,63.15,.15,1.8,1.05,3.3,1.05,5.1,0,1.95-1.65,3-3.45,3-3.9,.15-5.4-2.7-5.55-6.15-.3-12.9,1.05-27.15,1.95-39.75,.6-9.9,1.95-25.05,2.1-32.55,0-1.8-.9-1.8-2.7-1.8-2.85,.15-1.2,.3-3.9,.45-2.7,.15-3.6-1.8-3.9-4.05-.75-.6-.6-1.65-.6-2.4-.15-1.2,.9-2.25,1.95-2.25h.3c1.35,0,2.55,.6,3.9,.6h.3c1.8-.15,3.75-.15,5.85-.15,6.45,0,13.2,.45,14.85,1.2,1.65,.9,2.55,2.4,2.7,4.2,0,1.35-1.05,2.55-2.4,2.4h-6.9c-1.65,2.85-1.65,6-1.95,9Z"/>
    <path d="M864.23,161.71c3,0,5.7-.45,8.55-.45,.9,0,1.8,0,2.7,.15,.6,1.05,.75,1.05,.75,2.25,0,2.7-7.35,5.25-10.8,5.25-1.35,.6-2.55,.6-4.2,.6-.45,4.35-.75,9.6-1.05,13.65-.45,8.7-1.05,17.1-.45,25.65,.3,3.3-1.35,4.2-4.5,4.2-3.75,0-4.05-5.7-4.05-8.25,0-9.9,.45-21.45,1.2-31.05,1.05-14.1,2.7-30.15,3.45-42.45,.15-2.1-.3-3.45-.3-5.25,.3-3.6,4.5-4.5,7.8-4.5,.6,0,1.2,.15,1.8,.15,.9-.3,1.8-.3,2.85-.3,.9,0,1.95,0,2.85,.15,2.25,.3,7.2,1.8,6.9,4.8,0,.15,0,.75-.15,1.05-.3,.9-1.2,1.05-1.95,1.05h-1.35c-2.55,0-6.6,.6-9.3,.9-.45,.6-.15,1.5-.3,2.4-.9,5.7-2.55,24.45-2.4,29.7,.75,.15,1.35,.3,1.95,.3Z"/>
    <path d="M895.58,214.06c-3.9,0-7.2-3-8.85-6.3-1.2-2.4-1.35-5.1-1.65-7.65-1.5-12.6-.6-23.25,.45-35.25,1.05-11.25,3-21.75,5.7-32.85,.6-2.55,2.55-7.65,5.25-7.65,.6,0,1.2,.3,1.8,.75,.75,.45,1.2,.6,1.65,.6,.6,0,1.05-.15,1.8-.15,2.1,.45,3.9,.75,6.15,2.25,.6,.3,1.5,1.5,2.1,3.15,4.2,9.45,4.65,22.95,3,43.05-.9,8.85-4.65,40.05-17.4,40.05Zm.15-7.05c.15,0,.45-.6,.75-1.05,4.8-9.3,7.5-22.8,8.85-33,.9-8.25,2.1-37.05-4.35-42.9-5.25,7.05-12.3,68.1-5.7,76.5,.15,.3,.3,.45,.45,.45Z"/>
    <path d="M930.08,121.96c2.55,0,4.2,1.35,5.4,3.45,3.15,2.55,10.95,5.7,11.25,19.05,.3,11.85-6.45,20.55-11.4,26.25,.75,.75,3.75,8.85,4.05,9.6,3.9,9,9.15,18.3,10.2,20.25,.6,1.35-.9,1.95-2.25,1.95h-.9c-6.15-.9-13.65-19.65-16.05-24.75,0,5.4-.45,8.25-.6,12.3-.15,2.1-.75,11.25-.6,18.15,.15,4.35-.15,7.65-1.95,7.65-3.75,0-5.55-.9-5.7-4.95-.15-6,.15-12,.45-17.85,.45-12.3,.9-24.45,1.5-36.6,.3-4.5,1.8-18.15,1.5-22.5-.15-4.5-2.25-4.95-2.25-6,2.25-2.55,3.75-5.85,7.35-6Zm9.15,22.8c.15-5.85-3.15-9.9-5.85-10.35-.45,6.45-1.8,22.35-2.4,28.8,3.6-2.55,7.95-10.2,8.25-18.45Z"/>
    <path d="M993.22,126.61c7.05,3.3,11.25,12.6,12.3,19.95,0,1.8,.3,4.05,.3,5.85,.75,16.8-3.9,40.8-16.5,52.8-4.2,3.9-7.05,4.35-8.85,5.55v2.25c0,2.55,0,3.3-1.95,3.3-2.55,0-5.7-.9-5.7-4.05-.6-14.1,.9-25.65,1.65-39.6,1.05-16.8,2.55-31.05,3.3-47.7,.15-2.25,.9-4.5,3.3-4.65,1.5,0,1.8,.45,3.75,1.5,.75,.45,.9,2.1,.9,3.3,1.8,0,5.7,.9,7.5,1.5Zm-7.8,71.4c9.3-12.6,13.05-33.45,12.3-49.05-.3-4.65-2.4-14.55-9.15-15.9-.3-.15-.75-.15-1.2-.15-.6,0-1.35,.15-1.8,.3-1.05,9.3-1.8,20.85-2.55,30.3-.75,11.55-1.65,26.7-2.25,38.25,1.65-1.35,3.45-1.95,4.65-3.75Z"/>
    <path d="M1024.57,168.16c-1.8,9.75-5.25,30.15-6.9,44.4-.15,1.65-1.05,2.85-2.85,3-1.35,0-4.8-1.8-4.8-3.3-.3-5.1,1.05-13.05,1.95-18.3,4.35-21.9,8.1-44.25,13.2-65.4,.6-2.4,2.1-5.55,5.25-5.7,1.65,0,6.45,1.2,6.75,3.15,.75,9.6,1.5,24.45,1.95,34.05,1.2,.45,1.8,2.25,1.5,3.9-.15,1.65-1.35,2.1-1.2,3.6,.3,9.45,.9,32.85,2.85,44.1,.15,1.05,.75,1.05,.75,1.95-.15,1.05-3.75,1.35-5.25,1.35-2.55-.15-3.45-1.05-3.6-3.6-1.8-19.35-1.65-33.15-2.7-43.5-2.85,.3-3.75,.15-6.9,.3Zm6.45-33c-1.05,5.1-4.2,18.6-4.95,25.2,.3,0,1.2,.15,2.1,.15,1.35,0,2.85-.15,3.3-.3-.15-5.55,0-13.05-.3-18.6l-.15-6.45Z"/>
    <path d="M1068.07,142.36c-1.05,10.35-3.9,51.15-3.6,63.15,.15,1.8,1.05,3.3,1.05,5.1,0,1.95-1.65,3-3.45,3-3.9,.15-5.4-2.7-5.55-6.15-.3-12.9,1.05-27.15,1.95-39.75,.6-9.9,1.95-25.05,2.1-32.55,0-1.8-.9-1.8-2.7-1.8-2.85,.15-1.2,.3-3.9,.45-2.7,.15-3.6-1.8-3.9-4.05-.75-.6-.6-1.65-.6-2.4-.15-1.2,.9-2.25,1.95-2.25h.3c1.35,0,2.55,.6,3.9,.6h.3c1.8-.15,3.75-.15,5.85-.15,6.45,0,13.2,.45,14.85,1.2,1.65,.9,2.55,2.4,2.7,4.2,0,1.35-1.05,2.55-2.4,2.4h-6.9c-1.65,2.85-1.65,6-1.95,9Z"/>
    <path d="M1098.37,181.06c-2.1,0-3.9,0-6,.3-2.55,9.6-3.15,14.4-4.5,24.3-.6,1.95,0,4.2-.15,6.3-.15,1.8-.9,3.75-3,3.75-1.5,0-5.25-1.95-5.4-3.9-1.05-9.45,13.05-65.85,15.75-78,.45-2.25,.6-6,1.2-8.4,.6-2.25,1.65-2.7,4.35-2.7,2.85,0,5.55,2.25,5.85,4.8,0,5.85,.15,11.25,1.05,17.1l1.8,20.55c1.05,11.85,1.35,23.55,2.4,35.25,.3,3.15,1.2,6.45,1.35,9.6,.3,2.55-.9,3.9-3.45,3.9-4.05,0-4.95-3.9-5.25-7.2-.75-10.35-.9-15.45-1.95-25.95-1.2,.3-2.55,.3-4.05,.3Zm1.35-33.9c-1.8,7.2-4.2,19.2-5.55,26.4,.9,.3,3,.45,4.05,.45,1.2,0,2.4-.3,3.45-.75l-1.35-26.1h-.6Z"/>
    <path d="M536.79,248.71c1.5,0,2.7,.45,4.05,.6,1.5,1.35,2.7,2.55,2.85,4.5,.15,4.35,.6,8.85,.6,12.45,.45,14.85,.9,29.55,1.65,43.65,0,.75,.15,1.8,.6,1.95,.3,.15,.15-.75,.45-1.95,3.15-16.35,7.2-38.1,11.85-56.4,.9-3.3,1.5-6.45,2.7-9.6,.75,0,3.15-.6,4.35-.6,1.95,0,3.15,1.8,2.7,3.75-4.2,17.25-8.1,35.4-11.7,52.8-1.95,8.55-2.7,15.45-4.35,24.6-.45,1.95-1.2,3.9-1.2,5.85-.15,2.55-1.8,4.05-4.05,4.05-.6,0-1.2-.15-1.95-.45-1.8-1.05-3-.75-4.65-2.4-.6-.75-.75-1.95-.75-2.7,0-1.8-.15-3-.15-4.35-1.65-10.65-2.4-21.3-2.85-31.95-.6-12.9,0-26.55-2.1-39.6-.6-1.2,0-2.55-.15-3.9,.75-.3,1.5-.3,2.1-.3Z"/>
    <path d="M572.49,282.76c.45-8.1,.45-24.6,1.05-32.25,.45-3.6-1.05-7.8,3.9-8.55,1.5-.15,5.4,2.1,5.55,3.75,.15,.9-.3,1.8-.45,2.55-2.4,17.55-2.1,28.5-2.25,43.65-.15,9-.3,18.3-.6,27.3-.15,4.05,.3,15.75-4.05,15.75-3.6,0-7.35-3.9-5.1-3.9,.9-7.95,1.35-31.35,1.95-48.3Z"/>
    <path d="M595.29,328.36c8.1-.3,10.95-13.65,10.8-20.1-.45-15.6-15.75-19.35-16.5-39-.15-9.75,12.45-27.45,22.65-27.75,3.15,0,6.75,2.55,6.9,5.85,0,1.65-1.35,2.85-3,2.85-.45,0-1.05-.15-1.65-.45-9.3,.3-17.7,12.9-17.4,21.45,.3,12,15.75,17.1,16.5,37.5,.15,9.75-6.6,26.7-17.55,27.15-3.6,.15-7.05-2.55-7.8-6,.75-1.5,1.8-3.15,3.15-3.3,1.05,1.65,2.7,1.8,3.9,1.8Z"/>
    <path d="M644.64,298.66c2.7-16.95,4.35-38.7,4.35-55.8,.9-.3,1.8-.45,2.55-.45,6.15,0,4.65,9.3,4.8,12.3,.15,4.2-1.5,29.7-3.6,45.15-.9,6.9-4.8,34.2-15,34.2-12.6,0-14.1-23.1-13.5-42.45,.3-11.55,.6-23.55,1.5-34.65,0-1.65,.15-3,.15-4.65-.15-3.3,2.25-4.65,5.1-4.8,2.1-.15,5.1,1.65,5.1,4.05,0,.9-.6,1.8-.75,2.85-1.2,4.95-1.95,27.3-2.4,40.5-.6,14.85,.75,31.8,4.05,31.8,2.4,0,5.25-14.1,7.65-28.05Z"/>
    <path d="M673.89,288.16c-1.8,9.75-5.25,30.15-6.9,44.4-.15,1.65-1.05,2.85-2.85,3-1.35,0-4.8-1.8-4.8-3.3-.3-5.1,1.05-13.05,1.95-18.3,4.35-21.9,8.1-44.25,13.2-65.4,.6-2.4,2.1-5.55,5.25-5.7,1.65,0,6.45,1.2,6.75,3.15,.75,9.6,1.5,24.45,1.95,34.05,1.2,.45,1.8,2.25,1.5,3.9-.15,1.65-1.35,2.1-1.2,3.6,.3,9.45,.9,32.85,2.85,44.1,.15,1.05,.75,1.05,.75,1.95-.15,1.05-3.75,1.35-5.25,1.35-2.55-.15-3.45-1.05-3.6-3.6-1.8-19.35-1.65-33.15-2.7-43.5-2.85,.3-3.75,.15-6.9,.3Zm6.45-33c-1.05,5.1-4.2,18.6-4.95,25.2,.3,0,1.2,.15,2.1,.15,1.35,0,2.85-.15,3.3-.3-.15-5.55,0-13.05-.3-18.6l-.15-6.45Z"/>
    <path d="M721.13,321.01c1.05-.15,1.95,1.2,1.95,2.4,0,5.4-14.1,7.8-18.15,9-.3,.15-.9,.15-1.35,.15-3.15,0-4.95-1.65-6.3-4.2-.3-1.5,1.35-5.85,1.35-8.55,0-19.5,1.8-39.45,3-59.1,.3-3.75,.45-7.65,.45-11.7,0-3.6,1.8-3.6,4.8-3.6,2.1,0,3.75,2.25,3.6,4.2-2.4,22.05-4.8,49.2-4.8,74.1,5.25,0,12-1.8,15.45-2.7Z"/>
    <path d="M740.93,247.66c-1.65,25.2-1.65,55.95-4.2,82.65-.3,2.1-.6,2.85-2.4,2.85-.6,0-1.2,0-2.1-.15-1.8-.3-3-3.6-2.7-5.4-.3-.3-.15-.9-.15-1.35,1.65-23.1,2.85-47.55,3.15-70.35,0-2.85,0-5.25,.3-8.1,.6-2.85,2.1-3.75,4.8-3.75,1.65,1.2,3.6,.9,3.3,3.6Z"/>
    <path d="M766.73,250.51c-2.55,0-4.95,1.35-7.2,1.35-2.7,0-6-3.9-6.3-6.3-.15-2.25,10.8-2.4,12.75-2.4,1.2,0,2.7-.15,4.35-.15,4.8,0,10.5,.75,10.95,6,.15,1.05-.45,2.25-1.35,2.85-2.25,2.4-3.15,4.95-4.2,7.8-4.05,12.15-8.55,24.3-12.6,36.6-2.7,8.1-7.35,22.05-7.95,27.6-.15,1.5,1.2,2.1,2.7,2.1,1.65,0,3.15-.3,4.95-.3,.3,0,.75,0,1.2,.15,1.95,0,3.45-1.05,5.25-1.05,2.1,0,5.25,1.35,5.4,4.05,.45,4.05-5.1,4.05-7.95,4.05h-5.1c-4.95,0-9.15-.6-13.65-5.4-.75-.9-1.35-1.8-1.5-3.15-.15-3.3,.9-3.9,2.1-7.05,2.4-8.7,7.05-22.35,10.2-31.2,2.1-6.3,11.4-31.35,11.1-35.25-1.05-.3-2.1-.3-3.15-.3Z"/>
    <path d="M799.13,288.16c-1.8,9.75-5.25,30.15-6.9,44.4-.15,1.65-1.05,2.85-2.85,3-1.35,0-4.8-1.8-4.8-3.3-.3-5.1,1.05-13.05,1.95-18.3,4.35-21.9,8.1-44.25,13.2-65.4,.6-2.4,2.1-5.55,5.25-5.7,1.65,0,6.45,1.2,6.75,3.15,.75,9.6,1.5,24.45,1.95,34.05,1.2,.45,1.8,2.25,1.5,3.9-.15,1.65-1.35,2.1-1.2,3.6,.3,9.45,.9,32.85,2.85,44.1,.15,1.05,.75,1.05,.75,1.95-.15,1.05-3.75,1.35-5.25,1.35-2.55-.15-3.45-1.05-3.6-3.6-1.8-19.35-1.65-33.15-2.7-43.5-2.85,.3-3.75,.15-6.9,.3Zm6.45-33c-1.05,5.1-4.2,18.6-4.95,25.2,.3,0,1.2,.15,2.1,.15,1.35,0,2.85-.15,3.3-.3-.15-5.55,0-13.05-.3-18.6l-.15-6.45Z"/>
    <path d="M841.13,262.36c-1.05,10.35-3.9,51.15-3.6,63.15,.15,1.8,1.05,3.3,1.05,5.1,0,1.95-1.65,3-3.45,3-3.9,.15-5.4-2.7-5.55-6.15-.3-12.9,1.05-27.15,1.95-39.75,.6-9.9,1.95-25.05,2.1-32.55,0-1.8-.9-1.8-2.7-1.8-2.85,.15-1.2,.3-3.9,.45-2.7,.15-3.6-1.8-3.9-4.05-.75-.6-.6-1.65-.6-2.4-.15-1.2,.9-2.25,1.95-2.25h.3c1.35,0,2.55,.6,3.9,.6h.3c1.8-.15,3.75-.15,5.85-.15,6.45,0,13.2,.45,14.85,1.2,1.65,.9,2.55,2.4,2.7,4.2,0,1.35-1.05,2.55-2.4,2.4h-6.9c-1.65,2.85-1.65,6-1.95,9Z"/>
    <path d="M868.88,247.66c-1.65,25.2-1.65,55.95-4.2,82.65-.3,2.1-.6,2.85-2.4,2.85-.6,0-1.2,0-2.1-.15-1.8-.3-3-3.6-2.7-5.4-.3-.3-.15-.9-.15-1.35,1.65-23.1,2.85-47.55,3.15-70.35,0-2.85,0-5.25,.3-8.1,.6-2.85,2.1-3.75,4.8-3.75,1.65,1.2,3.6,.9,3.3,3.6Z"/>
    <path d="M886.73,334.06c-3.9,0-7.2-3-8.85-6.3-1.2-2.4-1.35-5.1-1.65-7.65-1.5-12.6-.6-23.25,.45-35.25,1.05-11.25,3-21.75,5.7-32.85,.6-2.55,2.55-7.65,5.25-7.65,.6,0,1.2,.3,1.8,.75,.75,.45,1.2,.6,1.65,.6,.6,0,1.05-.15,1.8-.15,2.1,.45,3.9,.75,6.15,2.25,.6,.3,1.5,1.5,2.1,3.15,4.2,9.45,4.65,22.95,3,43.05-.9,8.85-4.65,40.05-17.4,40.05Zm.15-7.05c.15,0,.45-.6,.75-1.05,4.8-9.3,7.5-22.8,8.85-33,.9-8.25,2.1-37.05-4.35-42.9-5.25,7.05-12.3,68.1-5.7,76.5,.15,.3,.3,.45,.45,.45Z"/>
    <path d="M936.98,260.11c0-2.55,0-13.5,1.8-14.4,.6-.45,1.2-.6,1.8-.6,2.1,0,3.9,1.8,3.9,3.6,.15,5.25-.3,13.05-.6,18.3-.75,13.8-1.2,37.95-1.5,51.9,0,1.95,.6,3.75,.6,5.7,0,2.25-1.65,3.45-4.5,3.45-.15,1.65-1.05,2.85-2.7,3-1.35,0-2.7-1.05-3-2.25-4.05-15.9-7.5-36.9-7.8-38.55-.3-1.65-3.45-21.9-4.2-22.8,.15,3.15,0,9.75-.15,12.75,0,.9-1.05,44.85-2.55,51.15-.45,1.95-2.1,2.85-3.45,2.85s-2.55-.75-2.85-2.1c-1.5-5.7-.15-12.3,.6-20.7,.3-6.6,.6-14.4,.75-21.15,.45-12.15,.9-24.3,.75-36.45-.15-5.55,1.8-9.15,5.7-9.15,3.45,0,5.1,.75,5.85,4.35,.9,3.6,1.2,7.5,1.8,11.25,1.05,5.85,2.25,12.6,3.15,18.6,1.5,8.1,2.7,15.3,4.35,23.4,.45,1.8,.9,3.75,.9,5.7,.15-14.4,1.2-42,1.35-47.85Z"/>
    <path d="M975.52,245.71c.6-1.5,1.35-2.4,3.15-2.55,1.65-.15,4.2-.45,6.9-.45,4.5,0,9.3,.9,9.6,5.25,.15,1.8-1.05,2.55-2.7,2.55l-12.9,.75c.6,.6,1.8,1.65,1.8,2.7,0,1.2-.6,2.25-.9,3.6-1.35,7.05-1.65,18.15-2.4,24.45l12.75,.45c1.8,0,3,.45,3,2.1,0,1.2-1.05,2.85-2.25,3.3-.9,0-2.1,.6-3,.75-2.85,.3-7.35,.45-10.2,1.2-1.8,.45-1.35,2.55-1.65,4.65-1.35,10.2-1.65,19.5-1.5,30,3.6-1.05,7.65-3.3,11.1-3.3,2.55,0,6,.9,6,3.9,0,1.8-1.2,2.4-3,2.55-6.3,.9-11.4,5.1-19.05,5.25-2.85,0-3.45-3.45-3.45-5.55,0-9.45,.3-19.05,1.05-28.35,1.05-14.55,2.7-29.4,4.05-43.95,.45-3.9,.15-3.9,3.9-6l-.3-3.3Z"/>
    <path d="M1004.32,331.66c-.15,.75-.3,4.05-2.55,4.2-1.5,.15-4.65-2.1-4.8-4.05,0-.75,3.75-13.95,4.65-16.05-.15-1.2,8.4-25.35,9.15-27.45-3-12.15-4.8-24.6-7.35-36.6-.15-.6-.3-1.2-.3-1.8,0-.3,0-.6,.3-.75-.3-2.55,1.2-3.9,3.75-4.05,1.95-.15,3.9,1.95,4.2,3.75,.45,2.55,.6,5.25,1.05,7.95,1.2,6.45,2.1,13.35,3.45,21,2.55-6.6,7.65-22.65,13.05-32.25,.9-1.2,3.15-2.85,4.65-3,1.5,0,2.85,.9,4.05,1.95,.15,.6,.3,.9,.45,1.5,0,.6-.3,1.65-.9,1.95-3.45,3.9-5.55,8.85-7.65,13.65-2.1,4.95-9,22.65-10.35,27.3,1.05,7.5,4.95,25.2,8.55,35.25,.75,.75,.9,1.8,.9,2.7,0,1.05-.75,3.15-1.65,3.15-4.95,.3-11.25-18.45-12.9-27.6-2.4,6.75-6.75,19.95-9.75,29.25Z"/>
    <path d="M1072.27,265.66c-.15,10.35-7.95,29.4-20.7,34.65-.75,6.6-1.2,19.35-1.5,25.95,0,2.25,.75,4.2,.6,6.3,0,2.1,0,4.35-2.7,4.35-3.9-.15-5.55-2.55-5.55-6.15,0-14.1,1.2-32.1,2.55-46.2,1.2-12.9,2.55-28.5,2.25-34.8,0-1.05-1.35-2.7-1.05-3.75,.15-1.5,2.55-1.95,3.9-1.95,11.4,.3,22.5,6.75,22.2,21.6Zm-20.25,26.1c8.25-6.3,12.9-19.5,12.9-26.1,.15-8.1-3.3-13.95-9.15-14.25-.9,12.6-2.7,27.45-3.75,40.35Z"/>
    <path d="M1085.77,245.71c.6-1.5,1.35-2.4,3.15-2.55,1.65-.15,4.2-.45,6.9-.45,4.5,0,9.3,.9,9.6,5.25,.15,1.8-1.05,2.55-2.7,2.55l-12.9,.75c.6,.6,1.8,1.65,1.8,2.7,0,1.2-.6,2.25-.9,3.6-1.35,7.05-1.65,18.15-2.4,24.45l12.75,.45c1.8,0,3,.45,3,2.1,0,1.2-1.05,2.85-2.25,3.3-.9,0-2.1,.6-3,.75-2.85,.3-7.35,.45-10.2,1.2-1.8,.45-1.35,2.55-1.65,4.65-1.35,10.2-1.65,19.5-1.5,30,3.6-1.05,7.65-3.3,11.1-3.3,2.55,0,6,.9,6,3.9,0,1.8-1.2,2.4-3,2.55-6.3,.9-11.4,5.1-19.05,5.25-2.85,0-3.45-3.45-3.45-5.55,0-9.45,.3-19.05,1.05-28.35,1.05-14.55,2.7-29.4,4.05-43.95,.45-3.9,.15-3.9,3.9-6l-.3-3.3Z"/>
    <path d="M1117.87,241.96c2.55,0,4.2,1.35,5.4,3.45,3.15,2.55,10.95,5.7,11.25,19.05,.3,11.85-6.45,20.55-11.4,26.25,.75,.75,3.75,8.85,4.05,9.6,3.9,9,9.15,18.3,10.2,20.25,.6,1.35-.9,1.95-2.25,1.95h-.9c-6.15-.9-13.65-19.65-16.05-24.75,0,5.4-.45,8.25-.6,12.3-.15,2.1-.75,11.25-.6,18.15,.15,4.35-.15,7.65-1.95,7.65-3.75,0-5.55-.9-5.7-4.95-.15-6,.15-12,.45-17.85,.45-12.3,.9-24.45,1.5-36.6,.3-4.5,1.8-18.15,1.5-22.5-.15-4.5-2.25-4.95-2.25-6,2.25-2.55,3.75-5.85,7.35-6Zm9.15,22.8c.15-5.85-3.15-9.9-5.85-10.35-.45,6.45-1.8,22.35-2.4,28.8,3.6-2.55,7.95-10.2,8.25-18.45Z"/>
    <path d="M1152.67,247.66c-1.65,25.2-1.65,55.95-4.2,82.65-.3,2.1-.6,2.85-2.4,2.85-.6,0-1.2,0-2.1-.15-1.8-.3-3-3.6-2.7-5.4-.3-.3-.15-.9-.15-1.35,1.65-23.1,2.85-47.55,3.15-70.35,0-2.85,0-5.25,.3-8.1,.6-2.85,2.1-3.75,4.8-3.75,1.65,1.2,3.6,.9,3.3,3.6Z"/>
    <path d="M1188.07,320.41c0,2.25-.45,4.95-3.45,4.95s-4.05-2.25-4.65-4.65c-2.7-9.6-7.65-34.95-10.8-48,0,1.05,0,2.4-.15,3.45-.75,6.75-2.55,40.05-1.2,56.1,0,.3,.3,.75,.3,1.35,0,1.2-4.05,1.35-4.8,1.35-3.75,0-3.75-10.2-3.75-12.75-.15-12.15,.3-22.2,1.05-35.4,.6-9.9,1.5-20.25,1.5-30.15,0-1.95-.45-7.65-.45-10.5s1.35-3.45,4.35-3.45,6.3,3.15,6.6,6.3c3.15,21.9,6.9,39.15,12,60.6,3.75-16.95,11.85-45,16.05-61.05,.9-3.15,1.5-3.9,5.1-3.9s7.2,2.7,7.2,5.85c-.3,27.75-2.85,53.1-3.15,80.85,0,2.55-.45,2.55-3.3,2.55-2.4,0-5.1-5.4-5.1-7.95,0-12.45,1.65-15.45,2.1-27.15,.6-11.1,1.95-30.6,2.1-41.85-6.6,23.25-13.5,50.4-17.55,63.45Z"/>
    <path d="M1226.32,245.71c.6-1.5,1.35-2.4,3.15-2.55,1.65-.15,4.2-.45,6.9-.45,4.5,0,9.3,.9,9.6,5.25,.15,1.8-1.05,2.55-2.7,2.55l-12.9,.75c.6,.6,1.8,1.65,1.8,2.7,0,1.2-.6,2.25-.9,3.6-1.35,7.05-1.65,18.15-2.4,24.45l12.75,.45c1.8,0,3,.45,3,2.1,0,1.2-1.05,2.85-2.25,3.3-.9,0-2.1,.6-3,.75-2.85,.3-7.35,.45-10.2,1.2-1.8,.45-1.35,2.55-1.65,4.65-1.35,10.2-1.65,19.5-1.5,30,3.6-1.05,7.65-3.3,11.1-3.3,2.55,0,6,.9,6,3.9,0,1.8-1.2,2.4-3,2.55-6.3,.9-11.4,5.1-19.05,5.25-2.85,0-3.45-3.45-3.45-5.55,0-9.45,.3-19.05,1.05-28.35,1.05-14.55,2.7-29.4,4.05-43.95,.45-3.9,.15-3.9,3.9-6l-.3-3.3Z"/>
    <path d="M1275.66,260.11c0-2.55,0-13.5,1.8-14.4,.6-.45,1.2-.6,1.8-.6,2.1,0,3.9,1.8,3.9,3.6,.15,5.25-.3,13.05-.6,18.3-.75,13.8-1.2,37.95-1.5,51.9,0,1.95,.6,3.75,.6,5.7,0,2.25-1.65,3.45-4.5,3.45-.15,1.65-1.05,2.85-2.7,3-1.35,0-2.7-1.05-3-2.25-4.05-15.9-7.5-36.9-7.8-38.55-.3-1.65-3.45-21.9-4.2-22.8,.15,3.15,0,9.75-.15,12.75,0,.9-1.05,44.85-2.55,51.15-.45,1.95-2.1,2.85-3.45,2.85s-2.55-.75-2.85-2.1c-1.5-5.7-.15-12.3,.6-20.7,.3-6.6,.6-14.4,.75-21.15,.45-12.15,.9-24.3,.75-36.45-.15-5.55,1.8-9.15,5.7-9.15,3.45,0,5.1,.75,5.85,4.35,.9,3.6,1.2,7.5,1.8,11.25,1.05,5.85,2.25,12.6,3.15,18.6,1.5,8.1,2.7,15.3,4.35,23.4,.45,1.8,.9,3.75,.9,5.7,.15-14.4,1.2-42,1.35-47.85Z"/>
    <path d="M1308.06,262.36c-1.05,10.35-3.9,51.15-3.6,63.15,.15,1.8,1.05,3.3,1.05,5.1,0,1.95-1.65,3-3.45,3-3.9,.15-5.4-2.7-5.55-6.15-.3-12.9,1.05-27.15,1.95-39.75,.6-9.9,1.95-25.05,2.1-32.55,0-1.8-.9-1.8-2.7-1.8-2.85,.15-1.2,.3-3.9,.45-2.7,.15-3.6-1.8-3.9-4.05-.75-.6-.6-1.65-.6-2.4-.15-1.2,.9-2.25,1.95-2.25h.3c1.35,0,2.55,.6,3.9,.6h.3c1.8-.15,3.75-.15,5.85-.15,6.45,0,13.2,.45,14.85,1.2,1.65,.9,2.55,2.4,2.7,4.2,0,1.35-1.05,2.55-2.4,2.4h-6.9c-1.65,2.85-1.65,6-1.95,9Z"/>
    <path d="M1331.01,325.36c4.8-.45,8.1-9.75,7.2-18.75-1.05-12.15-12-20.25-12.9-31.65-.9-9.45,6.45-27.75,19.5-28.8,2.25,0,4.8,.3,5.55,2.85,.3,1.05,.15,5.1-1.95,5.1-.3,0-.6-.15-.9-.3-8.55,.15-15.75,12.3-15,20.25,.9,8.4,11.85,17.25,13.2,31.65,.75,8.7-2.7,26.25-13.2,27.45-4.05,0-7.65-3-7.95-7.05,0-.75,1.95-3.15,2.7-3,1.5,1.35,2.25,2.4,3.75,2.25Z"/>
  </g>
  <path class="cls-2" d="M58.01,145.82c.05-.14,.1-.28,.15-.42"/>
  <path class="cls-2" d="M99.38,344.97c-10.05-10.88-18.9-22.9-26.32-35.84"/>
  <path class="cls-2" d="M141.28,379.42c-11.93-7.33-23.02-15.88-33.09-25.49"/>
  <path class="cls-2" d="M180.5,397.9c-6.9-2.36-13.62-5.09-20.15-8.17"/>
  <path class="cls-2" d="M237.65,408.38c-14.71-.5-29.02-2.61-42.75-6.16"/>
  <path class="cls-2" d="M359.62,371.5c-31,22.28-68.72,35.79-109.54,36.93"/>
  <path class="cls-2" d="M403.57,328.08c-7.71,10.46-16.43,20.13-26.02,28.87"/>
  <g>
    <path class="cls-2" d="M385.28,72.48c7.38,7.49,14.16,15.58,20.27,24.17"/>
    <polygon class="cls-1" points="371.39 105.01 428.18 138.27 428.59 72.45 371.39 105.01"/>
  </g>
  <path class="cls-2" d="M341.05,38.67c11.48,6.45,22.25,14.01,32.17,22.53"/>
  <path class="cls-2" d="M292.51,19.38c6.11,1.53,12.11,3.34,17.99,5.42"/>
  <path class="cls-2" d="M244.05,13.5c.15,0,.3,0,.45,0,12.07,0,23.89,1.08,35.36,3.16"/>
  <path class="cls-2" d="M181.45,23.78c15.33-5.16,31.51-8.49,48.27-9.73"/>
  <path class="cls-2" d="M154.9,34.95c4.95-2.52,10.02-4.84,15.2-6.95"/>
  <path class="cls-2" d="M114.96,61.91c4.3-3.74,8.76-7.29,13.37-10.65"/>
  <path class="cls-2" d="M74.66,110.14c7.58-12.74,16.56-24.56,26.72-35.24"/>
  <path class="cls-2" d="M58.16,145.4c2.26-6.42,4.84-12.68,7.72-18.78"/>
</svg>