<svg width="1354" height="422" viewBox="0 0 1354 422" fill="none" xmlns="http://www.w3.org/2000/svg">
<path d="M141.61 134.26C144.82 134.26 147.38 135.22 150.27 135.54C153.48 138.43 156.04 140.99 156.36 145.16C156.68 154.46 157.64 164.08 157.64 171.77C158.6 203.51 159.56 234.94 161.17 265.08C161.17 266.68 161.49 268.93 162.45 269.25C163.09 269.57 162.77 267.65 163.41 265.08C170.14 230.13 178.8 183.63 188.74 144.52C190.66 137.47 191.95 130.73 194.51 124C196.11 124 201.24 122.72 203.81 122.72C207.98 122.72 210.54 126.57 209.58 130.74C200.6 167.61 192.27 206.41 184.57 243.61C180.4 261.89 178.8 276.64 175.27 296.2C174.31 300.37 172.71 304.54 172.71 308.7C172.39 314.15 168.86 317.36 164.05 317.36C162.77 317.36 161.49 317.04 159.88 316.4C156.03 314.15 153.47 314.8 149.94 311.27C148.66 309.67 148.34 307.1 148.34 305.5C148.34 301.65 148.02 299.09 148.02 296.2C144.49 273.43 142.89 250.67 141.93 227.9C140.65 200.32 141.93 171.15 137.44 143.25C136.16 140.68 137.44 137.8 137.12 134.91C138.72 134.27 140.33 134.27 141.61 134.27V134.26Z" fill="white"/>
<path d="M243.58 207.04C244.54 189.73 244.54 154.45 245.82 138.1C246.78 130.4 243.58 121.43 254.16 119.82C257.37 119.5 265.7 124.31 266.02 127.84C266.34 129.76 265.38 131.69 265.06 133.29C259.93 170.81 260.57 194.21 260.25 226.6C259.93 245.84 259.61 265.72 258.97 284.96C258.65 293.62 259.61 318.63 250.31 318.63C242.61 318.63 234.6 310.29 239.41 310.29C241.33 293.3 242.3 243.27 243.58 207.04Z" fill="white"/>
<path d="M317.32 304.52C334.64 303.88 340.73 275.34 340.41 261.55C339.45 228.2 306.74 220.19 305.14 178.18C304.82 157.34 331.75 119.5 353.56 118.86C360.29 118.86 367.99 124.31 368.31 131.36C368.31 134.89 365.42 137.45 361.9 137.45C360.94 137.45 359.66 137.13 358.37 136.49C338.49 137.13 320.53 164.07 321.17 182.34C321.81 207.99 354.84 218.89 356.44 262.5C356.76 283.34 342.33 319.58 318.92 320.54C311.22 320.86 303.85 315.09 302.25 307.71C303.85 304.5 306.1 300.98 308.98 300.66C311.23 304.19 314.75 304.51 317.32 304.51V304.52Z" fill="white"/>
<path d="M400.55 217.67C401.16 206.65 401.16 184.2 401.98 173.8C402.59 168.9 400.55 163.19 407.29 162.17C409.33 161.97 414.64 165.03 414.84 167.27C415.04 168.49 414.43 169.72 414.23 170.74C410.96 194.61 411.37 209.51 411.17 230.12C410.97 242.36 410.76 255.01 410.35 267.26C410.15 272.77 410.76 288.69 404.84 288.69C399.94 288.69 394.84 283.39 397.9 283.39C399.12 272.57 399.74 240.74 400.55 217.68V217.67Z" fill="white"/>
<path d="M446.87 175.22C442.79 175.42 439.52 172.36 439.32 168.08C439.32 165.02 439.93 162.16 443.4 162.16C444.62 162.16 446.26 162.77 447.48 162.77C450.54 162.97 453.4 163.18 456.46 163.18L462.58 162.77C464.62 162.77 466.66 162.57 468.91 162.57C473.2 162.57 477.48 162.77 481.36 163.39C484.01 163.59 484.42 165.02 485.24 166.86C485.44 168.9 484.22 170.74 482.59 171.76L468.31 172.17C466.88 179.11 465.86 185.43 465.05 192.17C461.38 219.51 458.52 247.47 459.34 275.02C459.34 276.86 459.54 278.9 460.36 280.32C460.56 282.16 460.77 283.99 460.77 285.63C460.77 288.69 458.12 289.92 455.46 289.92C449.13 289.92 449.13 283.19 449.13 278.09C448.11 247.07 451.78 215.85 455.25 185.04C455.45 180.96 456.07 177.29 455.86 173.41C452.19 174.02 450.76 175.25 446.88 175.25L446.87 175.22Z" fill="white"/>
<path d="M16.28 164.08C19.72 164.08 21.95 165.9 23.57 168.74C27.82 172.18 38.36 176.44 38.77 194.47C39.18 210.48 30.06 222.23 23.37 229.93C24.38 230.94 28.44 241.88 28.84 242.9C34.11 255.06 41.2 267.62 42.62 270.25C43.43 272.07 41.4 272.88 39.58 272.88H38.37C30.06 271.66 19.93 246.34 16.69 239.45C16.69 246.74 16.08 250.59 15.88 256.06C15.68 258.9 14.87 271.26 15.07 280.58C15.27 286.46 14.87 290.91 12.44 290.91C7.37003 290.91 4.94003 289.69 4.74003 284.22C4.54003 276.11 4.94003 268.01 5.35003 260.11C5.96003 243.49 6.57003 227.08 7.38003 210.67C7.79003 204.59 9.81003 186.15 9.41003 180.28C9.21003 174.2 6.37003 173.59 6.37003 172.18C9.41003 168.74 11.44 164.28 16.3 164.07L16.28 164.08ZM28.64 194.88C28.84 186.98 24.39 181.51 20.74 180.9C20.13 189.61 18.31 211.09 17.5 219.8C22.36 216.35 28.24 206.02 28.64 194.88Z" fill="white"/>
<path d="M74.8301 169.14C75.6401 167.11 76.6501 165.9 79.0801 165.69C81.3101 165.49 84.7501 165.08 88.4001 165.08C94.4801 165.08 100.96 166.3 101.37 172.17C101.57 174.6 99.9501 175.61 97.7201 175.61L80.2901 176.62C81.1001 177.43 82.7201 178.85 82.7201 180.27C82.7201 181.89 81.91 183.31 81.5 185.13C79.68 194.65 79.2701 209.65 78.2601 218.16L95.4801 218.77C97.9101 218.77 99.53 219.38 99.53 221.61C99.53 223.23 98.11 225.46 96.49 226.07C95.27 226.07 93.6501 226.88 92.4401 227.08C88.5901 227.49 82.5101 227.69 78.6601 228.7C76.2301 229.31 76.84 232.14 76.43 234.98C74.61 248.76 74.2001 261.32 74.4001 275.5C79.2601 274.08 84.73 271.04 89.39 271.04C92.83 271.04 97.49 272.26 97.49 276.31C97.49 278.74 95.8701 279.55 93.4401 279.75C84.9301 280.97 78.04 286.64 67.71 286.84C63.86 286.84 63.05 282.18 63.05 279.34C63.05 266.58 63.4601 253.61 64.4701 241.05C65.8901 221.4 68.1201 201.34 69.9401 181.68C70.5501 176.41 70.14 176.41 75.21 173.57L74.8001 169.11L74.8301 169.14Z" fill="white"/>
<path d="M17.78 228.56C17.78 228.56 28.81 253.64 37.18 268.89C43.48 280.35 49.67 290.33 52.04 290.12" fill="white"/>
<path d="M17.78 228.56C17.78 228.56 28.81 253.64 37.18 268.89C43.48 280.35 49.67 290.33 52.04 290.12" stroke="white" stroke-width="10" stroke-linecap="round" stroke-linejoin="round"/>
<path d="M554.64 181.06C552.54 181.06 550.74 181.06 548.64 181.36C546.09 190.96 545.49 195.76 544.14 205.66C543.54 207.61 544.14 209.86 543.99 211.96C543.84 213.76 543.09 215.71 540.99 215.71C539.49 215.71 535.74 213.76 535.59 211.81C534.54 202.36 548.64 145.96 551.34 133.81C551.79 131.56 551.94 127.81 552.54 125.41C553.14 123.16 554.19 122.71 556.89 122.71C559.74 122.71 562.44 124.96 562.74 127.51C562.74 133.36 562.89 138.76 563.79 144.61L565.59 165.16C566.64 177.01 566.94 188.71 567.99 200.41C568.29 203.56 569.19 206.86 569.34 210.01C569.64 212.56 568.44 213.91 565.89 213.91C561.84 213.91 560.94 210.01 560.64 206.71C559.89 196.36 559.74 191.26 558.69 180.76C557.49 181.06 556.14 181.06 554.64 181.06ZM555.99 147.16C554.19 154.36 551.79 166.36 550.44 173.56C551.34 173.86 553.44 174.01 554.49 174.01C555.69 174.01 556.89 173.71 557.94 173.26L556.59 147.16H555.99Z" fill="white"/>
<path d="M612.84 142.36C611.79 152.71 608.94 193.51 609.24 205.51C609.39 207.31 610.29 208.81 610.29 210.61C610.29 212.56 608.64 213.61 606.84 213.61C602.94 213.76 601.44 210.91 601.29 207.46C600.99 194.56 602.34 180.31 603.24 167.71C603.84 157.81 605.19 142.66 605.34 135.16C605.34 133.36 604.44 133.36 602.64 133.36C599.79 133.51 601.44 133.66 598.74 133.81C596.04 133.96 595.14 132.01 594.84 129.76C594.09 129.16 594.24 128.11 594.24 127.36C594.09 126.16 595.14 125.11 596.19 125.11H596.49C597.84 125.11 599.04 125.71 600.39 125.71H600.69C602.49 125.56 604.44 125.56 606.54 125.56C612.99 125.56 619.74 126.01 621.39 126.76C623.04 127.66 623.94 129.16 624.09 130.96C624.09 132.31 623.04 133.51 621.69 133.36H614.79C613.14 136.21 613.14 139.36 612.84 142.36Z" fill="white"/>
<path d="M642.09 214.06C638.19 214.06 634.89 211.06 633.24 207.76C632.04 205.36 631.89 202.66 631.59 200.11C630.09 187.51 630.99 176.86 632.04 164.86C633.09 153.61 635.04 143.11 637.74 132.01C638.34 129.46 640.29 124.36 642.99 124.36C643.59 124.36 644.19 124.66 644.79 125.11C645.54 125.56 645.99 125.71 646.44 125.71C647.04 125.71 647.49 125.56 648.24 125.56C650.34 126.01 652.14 126.31 654.39 127.81C654.99 128.11 655.89 129.31 656.49 130.96C660.69 140.41 661.14 153.91 659.49 174.01C658.59 182.86 654.84 214.06 642.09 214.06ZM642.24 207.01C642.39 207.01 642.69 206.41 642.99 205.96C647.79 196.66 650.49 183.16 651.84 172.96C652.74 164.71 653.94 135.91 647.49 130.06C642.24 137.11 635.19 198.16 641.79 206.56C641.94 206.86 642.09 207.01 642.24 207.01Z" fill="white"/>
<path d="M696.39 136.96C699.24 145.96 699.69 157.51 698.79 168.91C697.74 181.36 696.54 196.66 691.14 208.06C689.19 211.51 686.34 215.11 681.39 214.96C678.69 214.66 675.69 214.06 674.19 211.66C671.19 208.66 669.54 204.01 669.09 199.96C667.14 189.01 668.49 176.71 669.99 165.31C671.94 150.61 675.54 136.36 679.44 121.81C680.19 119.11 681.84 117.46 683.79 117.46C684.84 117.46 686.04 117.91 687.24 118.96C688.74 120.46 689.34 121.06 688.29 123.31C687.69 124.51 687.54 124.96 686.94 126.16C691.74 129.01 694.89 131.11 696.39 136.96ZM682.44 207.61C686.79 201.61 690.09 182.86 690.99 167.56C691.44 158.71 692.04 136.21 685.29 132.76C681.99 144.46 679.89 155.26 678.24 167.11C677.04 177.31 674.49 203.11 680.79 208.51C681.39 208.51 682.14 208.36 682.44 207.61Z" fill="white"/>
<path d="M730.44 201.01C731.49 200.86 732.39 202.21 732.39 203.41C732.39 208.81 718.29 211.21 714.24 212.41C713.94 212.56 713.34 212.56 712.89 212.56C709.74 212.56 707.94 210.91 706.59 208.36C706.29 206.86 707.94 202.51 707.94 199.81C707.94 180.31 709.74 160.36 710.94 140.71C711.24 136.96 711.39 133.06 711.39 129.01C711.39 125.41 713.19 125.41 716.19 125.41C718.29 125.41 719.94 127.66 719.79 129.61C717.39 151.66 714.99 178.81 714.99 203.71C720.24 203.71 726.99 201.91 730.44 201.01Z" fill="white"/>
<path d="M769.43 132.76C773.33 132.76 773.78 138.31 771.53 140.71C765.23 147.01 756.68 158.26 753.98 162.91C753.98 168.31 772.58 193.36 772.58 194.86C772.58 196.21 770.63 196.66 769.43 196.66C763.28 196.66 753.68 179.71 750.38 174.46C750.38 175.36 750.23 176.56 750.08 177.61C749.18 188.11 748.13 200.56 748.43 211.06C748.43 212.56 748.28 214.21 745.58 214.21C745.43 214.36 745.13 214.51 744.98 214.51C741.08 214.51 740.63 206.41 740.63 203.56C740.63 191.56 741.83 175.66 742.58 163.51C743.18 156.76 743.93 148.36 744.53 141.46C744.83 136.51 745.28 131.71 745.73 126.46C745.88 124.96 746.93 124.06 748.43 124.06H748.73C751.58 124.06 754.13 127.36 753.98 130.36C753.68 136.36 752.18 145.51 752.03 151.36C755.78 148.96 765.38 132.76 769.43 132.76Z" fill="white"/>
<path d="M789.38 127.66C787.73 152.86 787.73 183.61 785.18 210.31C784.88 212.41 784.58 213.16 782.78 213.16C782.18 213.16 781.58 213.16 780.68 213.01C778.88 212.71 777.68 209.41 777.98 207.61C777.68 207.31 777.83 206.71 777.83 206.26C779.48 183.16 780.68 158.71 780.98 135.91C780.98 133.06 780.98 130.66 781.28 127.81C781.88 124.96 783.38 124.06 786.08 124.06C787.73 125.26 789.68 124.96 789.38 127.66Z" fill="white"/>
<path d="M815.63 142.36C814.58 152.71 811.73 193.51 812.03 205.51C812.18 207.31 813.08 208.81 813.08 210.61C813.08 212.56 811.43 213.61 809.63 213.61C805.73 213.76 804.23 210.91 804.08 207.46C803.78 194.56 805.13 180.31 806.03 167.71C806.63 157.81 807.98 142.66 808.13 135.16C808.13 133.36 807.23 133.36 805.43 133.36C802.58 133.51 804.23 133.66 801.53 133.81C798.83 133.96 797.93 132.01 797.63 129.76C796.88 129.16 797.03 128.11 797.03 127.36C796.88 126.16 797.93 125.11 798.98 125.11H799.28C800.63 125.11 801.83 125.71 803.18 125.71H803.48C805.28 125.56 807.23 125.56 809.33 125.56C815.78 125.56 822.53 126.01 824.18 126.76C825.83 127.66 826.73 129.16 826.88 130.96C826.88 132.31 825.83 133.51 824.48 133.36H817.58C815.93 136.21 815.93 139.36 815.63 142.36Z" fill="white"/>
<path d="M864.23 161.71C867.23 161.71 869.93 161.26 872.78 161.26C873.68 161.26 874.58 161.26 875.48 161.41C876.08 162.46 876.23 162.46 876.23 163.66C876.23 166.36 868.88 168.91 865.43 168.91C864.08 169.51 862.88 169.51 861.23 169.51C860.78 173.86 860.48 179.11 860.18 183.16C859.73 191.86 859.13 200.26 859.73 208.81C860.03 212.11 858.38 213.01 855.23 213.01C851.48 213.01 851.18 207.31 851.18 204.76C851.18 194.86 851.63 183.31 852.38 173.71C853.43 159.61 855.08 143.56 855.83 131.26C855.98 129.16 855.53 127.81 855.53 126.01C855.83 122.41 860.03 121.51 863.33 121.51C863.93 121.51 864.53 121.66 865.13 121.66C866.03 121.36 866.93 121.36 867.98 121.36C868.88 121.36 869.93 121.36 870.83 121.51C873.08 121.81 878.03 123.31 877.73 126.31C877.73 126.46 877.73 127.06 877.58 127.36C877.28 128.26 876.38 128.41 875.63 128.41H874.28C871.73 128.41 867.68 129.01 864.98 129.31C864.53 129.91 864.83 130.81 864.68 131.71C863.78 137.41 862.13 156.16 862.28 161.41C863.03 161.56 863.63 161.71 864.23 161.71Z" fill="white"/>
<path d="M895.58 214.06C891.68 214.06 888.38 211.06 886.73 207.76C885.53 205.36 885.38 202.66 885.08 200.11C883.58 187.51 884.48 176.86 885.53 164.86C886.58 153.61 888.53 143.11 891.23 132.01C891.83 129.46 893.78 124.36 896.48 124.36C897.08 124.36 897.68 124.66 898.28 125.11C899.03 125.56 899.48 125.71 899.93 125.71C900.53 125.71 900.98 125.56 901.73 125.56C903.83 126.01 905.63 126.31 907.88 127.81C908.48 128.11 909.38 129.31 909.98 130.96C914.18 140.41 914.63 153.91 912.98 174.01C912.08 182.86 908.33 214.06 895.58 214.06ZM895.73 207.01C895.88 207.01 896.18 206.41 896.48 205.96C901.28 196.66 903.98 183.16 905.33 172.96C906.23 164.71 907.43 135.91 900.98 130.06C895.73 137.11 888.68 198.16 895.28 206.56C895.43 206.86 895.58 207.01 895.73 207.01Z" fill="white"/>
<path d="M930.08 121.96C932.63 121.96 934.28 123.31 935.48 125.41C938.63 127.96 946.43 131.11 946.73 144.46C947.03 156.31 940.28 165.01 935.33 170.71C936.08 171.46 939.08 179.56 939.38 180.31C943.28 189.31 948.53 198.61 949.58 200.56C950.18 201.91 948.68 202.51 947.33 202.51H946.43C940.28 201.61 932.78 182.86 930.38 177.76C930.38 183.16 929.93 186.01 929.78 190.06C929.63 192.16 929.03 201.31 929.18 208.21C929.33 212.56 929.03 215.86 927.23 215.86C923.48 215.86 921.68 214.96 921.53 210.91C921.38 204.91 921.68 198.91 921.98 193.06C922.43 180.76 922.88 168.61 923.48 156.46C923.78 151.96 925.28 138.31 924.98 133.96C924.83 129.46 922.73 129.01 922.73 127.96C924.98 125.41 926.48 122.11 930.08 121.96ZM939.23 144.76C939.38 138.91 936.08 134.86 933.38 134.41C932.93 140.86 931.58 156.76 930.98 163.21C934.58 160.66 938.93 153.01 939.23 144.76Z" fill="white"/>
<path d="M993.22 126.61C1000.27 129.91 1004.47 139.21 1005.52 146.56C1005.52 148.36 1005.82 150.61 1005.82 152.41C1006.57 169.21 1001.92 193.21 989.32 205.21C985.12 209.11 982.27 209.56 980.47 210.76V213.01C980.47 215.56 980.47 216.31 978.52 216.31C975.97 216.31 972.82 215.41 972.82 212.26C972.22 198.16 973.72 186.61 974.47 172.66C975.52 155.86 977.02 141.61 977.77 124.96C977.92 122.71 978.67 120.46 981.07 120.31C982.57 120.31 982.87 120.76 984.82 121.81C985.57 122.26 985.72 123.91 985.72 125.11C987.52 125.11 991.42 126.01 993.22 126.61ZM985.42 198.01C994.72 185.41 998.47 164.56 997.72 148.96C997.42 144.31 995.32 134.41 988.57 133.06C988.27 132.91 987.82 132.91 987.37 132.91C986.77 132.91 986.02 133.06 985.57 133.21C984.52 142.51 983.77 154.06 983.02 163.51C982.27 175.06 981.37 190.21 980.77 201.76C982.42 200.41 984.22 199.81 985.42 198.01Z" fill="white"/>
<path d="M1024.57 168.16C1022.77 177.91 1019.32 198.31 1017.67 212.56C1017.52 214.21 1016.62 215.41 1014.82 215.56C1013.47 215.56 1010.02 213.76 1010.02 212.26C1009.72 207.16 1011.07 199.21 1011.97 193.96C1016.32 172.06 1020.07 149.71 1025.17 128.56C1025.77 126.16 1027.27 123.01 1030.42 122.86C1032.07 122.86 1036.87 124.06 1037.17 126.01C1037.92 135.61 1038.67 150.46 1039.12 160.06C1040.32 160.51 1040.92 162.31 1040.62 163.96C1040.47 165.61 1039.27 166.06 1039.42 167.56C1039.72 177.01 1040.32 200.41 1042.27 211.66C1042.42 212.71 1043.02 212.71 1043.02 213.61C1042.87 214.66 1039.27 214.96 1037.77 214.96C1035.22 214.81 1034.32 213.91 1034.17 211.36C1032.37 192.01 1032.52 178.21 1031.47 167.86C1028.62 168.16 1027.72 168.01 1024.57 168.16ZM1031.02 135.16C1029.97 140.26 1026.82 153.76 1026.07 160.36C1026.37 160.36 1027.27 160.51 1028.17 160.51C1029.52 160.51 1031.02 160.36 1031.47 160.21C1031.32 154.66 1031.47 147.16 1031.17 141.61L1031.02 135.16Z" fill="white"/>
<path d="M1068.07 142.36C1067.02 152.71 1064.17 193.51 1064.47 205.51C1064.62 207.31 1065.52 208.81 1065.52 210.61C1065.52 212.56 1063.87 213.61 1062.07 213.61C1058.17 213.76 1056.67 210.91 1056.52 207.46C1056.22 194.56 1057.57 180.31 1058.47 167.71C1059.07 157.81 1060.42 142.66 1060.57 135.16C1060.57 133.36 1059.67 133.36 1057.87 133.36C1055.02 133.51 1056.67 133.66 1053.97 133.81C1051.27 133.96 1050.37 132.01 1050.07 129.76C1049.32 129.16 1049.47 128.11 1049.47 127.36C1049.32 126.16 1050.37 125.11 1051.42 125.11H1051.72C1053.07 125.11 1054.27 125.71 1055.62 125.71H1055.92C1057.72 125.56 1059.67 125.56 1061.77 125.56C1068.22 125.56 1074.97 126.01 1076.62 126.76C1078.27 127.66 1079.17 129.16 1079.32 130.96C1079.32 132.31 1078.27 133.51 1076.92 133.36H1070.02C1068.37 136.21 1068.37 139.36 1068.07 142.36Z" fill="white"/>
<path d="M1098.37 181.06C1096.27 181.06 1094.47 181.06 1092.37 181.36C1089.82 190.96 1089.22 195.76 1087.87 205.66C1087.27 207.61 1087.87 209.86 1087.72 211.96C1087.57 213.76 1086.82 215.71 1084.72 215.71C1083.22 215.71 1079.47 213.76 1079.32 211.81C1078.27 202.36 1092.37 145.96 1095.07 133.81C1095.52 131.56 1095.67 127.81 1096.27 125.41C1096.87 123.16 1097.92 122.71 1100.62 122.71C1103.47 122.71 1106.17 124.96 1106.47 127.51C1106.47 133.36 1106.62 138.76 1107.52 144.61L1109.32 165.16C1110.37 177.01 1110.67 188.71 1111.72 200.41C1112.02 203.56 1112.92 206.86 1113.07 210.01C1113.37 212.56 1112.17 213.91 1109.62 213.91C1105.57 213.91 1104.67 210.01 1104.37 206.71C1103.62 196.36 1103.47 191.26 1102.42 180.76C1101.22 181.06 1099.87 181.06 1098.37 181.06ZM1099.72 147.16C1097.92 154.36 1095.52 166.36 1094.17 173.56C1095.07 173.86 1097.17 174.01 1098.22 174.01C1099.42 174.01 1100.62 173.71 1101.67 173.26L1100.32 147.16H1099.72Z" fill="white"/>
<path d="M536.79 248.71C538.29 248.71 539.49 249.16 540.84 249.31C542.34 250.66 543.54 251.86 543.69 253.81C543.84 258.16 544.29 262.66 544.29 266.26C544.74 281.11 545.19 295.81 545.94 309.91C545.94 310.66 546.09 311.71 546.54 311.86C546.84 312.01 546.69 311.11 546.99 309.91C550.14 293.56 554.19 271.81 558.84 253.51C559.74 250.21 560.34 247.06 561.54 243.91C562.29 243.91 564.69 243.31 565.89 243.31C567.84 243.31 569.04 245.11 568.59 247.06C564.39 264.31 560.49 282.46 556.89 299.86C554.94 308.41 554.19 315.31 552.54 324.46C552.09 326.41 551.34 328.36 551.34 330.31C551.19 332.86 549.54 334.36 547.29 334.36C546.69 334.36 546.09 334.21 545.34 333.91C543.54 332.86 542.34 333.16 540.69 331.51C540.09 330.76 539.94 329.56 539.94 328.81C539.94 327.01 539.79 325.81 539.79 324.46C538.14 313.81 537.39 303.16 536.94 292.51C536.34 279.61 536.94 265.96 534.84 252.91C534.24 251.71 534.84 250.36 534.69 249.01C535.44 248.71 536.19 248.71 536.79 248.71Z" fill="white"/>
<path d="M572.49 282.76C572.94 274.66 572.94 258.16 573.54 250.51C573.99 246.91 572.49 242.71 577.44 241.96C578.94 241.81 582.84 244.06 582.99 245.71C583.14 246.61 582.69 247.51 582.54 248.26C580.14 265.81 580.44 276.76 580.29 291.91C580.14 300.91 579.99 310.21 579.69 319.21C579.54 323.26 579.99 334.96 575.64 334.96C572.04 334.96 568.29 331.06 570.54 331.06C571.44 323.11 571.89 299.71 572.49 282.76Z" fill="white"/>
<path d="M595.29 328.36C603.39 328.06 606.24 314.71 606.09 308.26C605.64 292.66 590.34 288.91 589.59 269.26C589.44 259.51 602.04 241.81 612.24 241.51C615.39 241.51 618.99 244.06 619.14 247.36C619.14 249.01 617.79 250.21 616.14 250.21C615.69 250.21 615.09 250.06 614.49 249.76C605.19 250.06 596.79 262.66 597.09 271.21C597.39 283.21 612.84 288.31 613.59 308.71C613.74 318.46 606.99 335.41 596.04 335.86C592.44 336.01 588.99 333.31 588.24 329.86C588.99 328.36 590.04 326.71 591.39 326.56C592.44 328.21 594.09 328.36 595.29 328.36Z" fill="white"/>
<path d="M644.64 298.66C647.34 281.71 648.99 259.96 648.99 242.86C649.89 242.56 650.79 242.41 651.54 242.41C657.69 242.41 656.19 251.71 656.34 254.71C656.49 258.91 654.84 284.41 652.74 299.86C651.84 306.76 647.94 334.06 637.74 334.06C625.14 334.06 623.64 310.96 624.24 291.61C624.54 280.06 624.84 268.06 625.74 256.96C625.74 255.31 625.89 253.96 625.89 252.31C625.74 249.01 628.14 247.66 630.99 247.51C633.09 247.36 636.09 249.16 636.09 251.56C636.09 252.46 635.49 253.36 635.34 254.41C634.14 259.36 633.39 281.71 632.94 294.91C632.34 309.76 633.69 326.71 636.99 326.71C639.39 326.71 642.24 312.61 644.64 298.66Z" fill="white"/>
<path d="M673.89 288.16C672.09 297.91 668.64 318.31 666.99 332.56C666.84 334.21 665.94 335.41 664.14 335.56C662.79 335.56 659.34 333.76 659.34 332.26C659.04 327.16 660.39 319.21 661.29 313.96C665.64 292.06 669.39 269.71 674.49 248.56C675.09 246.16 676.59 243.01 679.74 242.86C681.39 242.86 686.19 244.06 686.49 246.01C687.24 255.61 687.99 270.46 688.44 280.06C689.64 280.51 690.24 282.31 689.94 283.96C689.79 285.61 688.59 286.06 688.74 287.56C689.04 297.01 689.64 320.41 691.59 331.66C691.74 332.71 692.34 332.71 692.34 333.61C692.19 334.66 688.59 334.96 687.09 334.96C684.54 334.81 683.64 333.91 683.49 331.36C681.69 312.01 681.84 298.21 680.79 287.86C677.94 288.16 677.04 288.01 673.89 288.16ZM680.34 255.16C679.29 260.26 676.14 273.76 675.39 280.36C675.69 280.36 676.59 280.51 677.49 280.51C678.84 280.51 680.34 280.36 680.79 280.21C680.64 274.66 680.79 267.16 680.49 261.61L680.34 255.16Z" fill="white"/>
<path d="M721.13 321.01C722.18 320.86 723.08 322.21 723.08 323.41C723.08 328.81 708.98 331.21 704.93 332.41C704.63 332.56 704.03 332.56 703.58 332.56C700.43 332.56 698.63 330.91 697.28 328.36C696.98 326.86 698.63 322.51 698.63 319.81C698.63 300.31 700.43 280.36 701.63 260.71C701.93 256.96 702.08 253.06 702.08 249.01C702.08 245.41 703.88 245.41 706.88 245.41C708.98 245.41 710.63 247.66 710.48 249.61C708.08 271.66 705.68 298.81 705.68 323.71C710.93 323.71 717.68 321.91 721.13 321.01Z" fill="white"/>
<path d="M740.93 247.66C739.28 272.86 739.28 303.61 736.73 330.31C736.43 332.41 736.13 333.16 734.33 333.16C733.73 333.16 733.13 333.16 732.23 333.01C730.43 332.71 729.23 329.41 729.53 327.61C729.23 327.31 729.38 326.71 729.38 326.26C731.03 303.16 732.23 278.71 732.53 255.91C732.53 253.06 732.53 250.66 732.83 247.81C733.43 244.96 734.93 244.06 737.63 244.06C739.28 245.26 741.23 244.96 740.93 247.66Z" fill="white"/>
<path d="M766.73 250.51C764.18 250.51 761.78 251.86 759.53 251.86C756.83 251.86 753.53 247.96 753.23 245.56C753.08 243.31 764.03 243.16 765.98 243.16C767.18 243.16 768.68 243.01 770.33 243.01C775.13 243.01 780.83 243.76 781.28 249.01C781.43 250.06 780.83 251.26 779.93 251.86C777.68 254.26 776.78 256.81 775.73 259.66C771.68 271.81 767.18 283.96 763.13 296.26C760.43 304.36 755.78 318.31 755.18 323.86C755.03 325.36 756.38 325.96 757.88 325.96C759.53 325.96 761.03 325.66 762.83 325.66C763.13 325.66 763.58 325.66 764.03 325.81C765.98 325.81 767.48 324.76 769.28 324.76C771.38 324.76 774.53 326.11 774.68 328.81C775.13 332.86 769.58 332.86 766.73 332.86H761.63C756.68 332.86 752.48 332.26 747.98 327.46C747.23 326.56 746.63 325.66 746.48 324.31C746.33 321.01 747.38 320.41 748.58 317.26C750.98 308.56 755.63 294.91 758.78 286.06C760.88 279.76 770.18 254.71 769.88 250.81C768.83 250.51 767.78 250.51 766.73 250.51Z" fill="white"/>
<path d="M799.13 288.16C797.33 297.91 793.88 318.31 792.23 332.56C792.08 334.21 791.18 335.41 789.38 335.56C788.03 335.56 784.58 333.76 784.58 332.26C784.28 327.16 785.63 319.21 786.53 313.96C790.88 292.06 794.63 269.71 799.73 248.56C800.33 246.16 801.83 243.01 804.98 242.86C806.63 242.86 811.43 244.06 811.73 246.01C812.48 255.61 813.23 270.46 813.68 280.06C814.88 280.51 815.48 282.31 815.18 283.96C815.03 285.61 813.83 286.06 813.98 287.56C814.28 297.01 814.88 320.41 816.83 331.66C816.98 332.71 817.58 332.71 817.58 333.61C817.43 334.66 813.83 334.96 812.33 334.96C809.78 334.81 808.88 333.91 808.73 331.36C806.93 312.01 807.08 298.21 806.03 287.86C803.18 288.16 802.28 288.01 799.13 288.16ZM805.58 255.16C804.53 260.26 801.38 273.76 800.63 280.36C800.93 280.36 801.83 280.51 802.73 280.51C804.08 280.51 805.58 280.36 806.03 280.21C805.88 274.66 806.03 267.16 805.73 261.61L805.58 255.16Z" fill="white"/>
<path d="M841.13 262.36C840.08 272.71 837.23 313.51 837.53 325.51C837.68 327.31 838.58 328.81 838.58 330.61C838.58 332.56 836.93 333.61 835.13 333.61C831.23 333.76 829.73 330.91 829.58 327.46C829.28 314.56 830.63 300.31 831.53 287.71C832.13 277.81 833.48 262.66 833.63 255.16C833.63 253.36 832.73 253.36 830.93 253.36C828.08 253.51 829.73 253.66 827.03 253.81C824.33 253.96 823.43 252.01 823.13 249.76C822.38 249.16 822.53 248.11 822.53 247.36C822.38 246.16 823.43 245.11 824.48 245.11H824.78C826.13 245.11 827.33 245.71 828.68 245.71H828.98C830.78 245.56 832.73 245.56 834.83 245.56C841.28 245.56 848.03 246.01 849.68 246.76C851.33 247.66 852.23 249.16 852.38 250.96C852.38 252.31 851.33 253.51 849.98 253.36H843.08C841.43 256.21 841.43 259.36 841.13 262.36Z" fill="white"/>
<path d="M868.88 247.66C867.23 272.86 867.23 303.61 864.68 330.31C864.38 332.41 864.08 333.16 862.28 333.16C861.68 333.16 861.08 333.16 860.18 333.01C858.38 332.71 857.18 329.41 857.48 327.61C857.18 327.31 857.33 326.71 857.33 326.26C858.98 303.16 860.18 278.71 860.48 255.91C860.48 253.06 860.48 250.66 860.78 247.81C861.38 244.96 862.88 244.06 865.58 244.06C867.23 245.26 869.18 244.96 868.88 247.66Z" fill="white"/>
<path d="M886.73 334.06C882.83 334.06 879.53 331.06 877.88 327.76C876.68 325.36 876.53 322.66 876.23 320.11C874.73 307.51 875.63 296.86 876.68 284.86C877.73 273.61 879.68 263.11 882.38 252.01C882.98 249.46 884.93 244.36 887.63 244.36C888.23 244.36 888.83 244.66 889.43 245.11C890.18 245.56 890.63 245.71 891.08 245.71C891.68 245.71 892.13 245.56 892.88 245.56C894.98 246.01 896.78 246.31 899.03 247.81C899.63 248.11 900.53 249.31 901.13 250.96C905.33 260.41 905.78 273.91 904.13 294.01C903.23 302.86 899.48 334.06 886.73 334.06ZM886.88 327.01C887.03 327.01 887.33 326.41 887.63 325.96C892.43 316.66 895.13 303.16 896.48 292.96C897.38 284.71 898.58 255.91 892.13 250.06C886.88 257.11 879.83 318.16 886.43 326.56C886.58 326.86 886.73 327.01 886.88 327.01Z" fill="white"/>
<path d="M936.98 260.11C936.98 257.56 936.98 246.61 938.78 245.71C939.38 245.26 939.98 245.11 940.58 245.11C942.68 245.11 944.48 246.91 944.48 248.71C944.63 253.96 944.18 261.76 943.88 267.01C943.13 280.81 942.68 304.96 942.38 318.91C942.38 320.86 942.98 322.66 942.98 324.61C942.98 326.86 941.33 328.06 938.48 328.06C938.33 329.71 937.43 330.91 935.78 331.06C934.43 331.06 933.08 330.01 932.78 328.81C928.73 312.91 925.28 291.91 924.98 290.26C924.68 288.61 921.53 268.36 920.78 267.46C920.93 270.61 920.78 277.21 920.63 280.21C920.63 281.11 919.58 325.06 918.08 331.36C917.63 333.31 915.98 334.21 914.63 334.21C913.28 334.21 912.08 333.46 911.78 332.11C910.28 326.41 911.63 319.81 912.38 311.41C912.68 304.81 912.98 297.01 913.13 290.26C913.58 278.11 914.03 265.96 913.88 253.81C913.73 248.26 915.68 244.66 919.58 244.66C923.03 244.66 924.68 245.41 925.43 249.01C926.33 252.61 926.63 256.51 927.23 260.26C928.28 266.11 929.48 272.86 930.38 278.86C931.88 286.96 933.08 294.16 934.73 302.26C935.18 304.06 935.63 306.01 935.63 307.96C935.78 293.56 936.83 265.96 936.98 260.11Z" fill="white"/>
<path d="M975.52 245.71C976.12 244.21 976.87 243.31 978.67 243.16C980.32 243.01 982.87 242.71 985.57 242.71C990.07 242.71 994.87 243.61 995.17 247.96C995.32 249.76 994.12 250.51 992.47 250.51L979.57 251.26C980.17 251.86 981.37 252.91 981.37 253.96C981.37 255.16 980.77 256.21 980.47 257.56C979.12 264.61 978.82 275.71 978.07 282.01L990.82 282.46C992.62 282.46 993.82 282.91 993.82 284.56C993.82 285.76 992.77 287.41 991.57 287.86C990.67 287.86 989.47 288.46 988.57 288.61C985.72 288.91 981.22 289.06 978.37 289.81C976.57 290.26 977.02 292.36 976.72 294.46C975.37 304.66 975.07 313.96 975.22 324.46C978.82 323.41 982.87 321.16 986.32 321.16C988.87 321.16 992.32 322.06 992.32 325.06C992.32 326.86 991.12 327.46 989.32 327.61C983.02 328.51 977.92 332.71 970.27 332.86C967.42 332.86 966.82 329.41 966.82 327.31C966.82 317.86 967.12 308.26 967.87 298.96C968.92 284.41 970.57 269.56 971.92 255.01C972.37 251.11 972.07 251.11 975.82 249.01L975.52 245.71Z" fill="white"/>
<path d="M1004.32 331.66C1004.17 332.41 1004.02 335.71 1001.77 335.86C1000.27 336.01 997.12 333.76 996.97 331.81C996.97 331.06 1000.72 317.86 1001.62 315.76C1001.47 314.56 1010.02 290.41 1010.77 288.31C1007.77 276.16 1005.97 263.71 1003.42 251.71C1003.27 251.11 1003.12 250.51 1003.12 249.91C1003.12 249.61 1003.12 249.31 1003.42 249.16C1003.12 246.61 1004.62 245.26 1007.17 245.11C1009.12 244.96 1011.07 247.06 1011.37 248.86C1011.82 251.41 1011.97 254.11 1012.42 256.81C1013.62 263.26 1014.52 270.16 1015.87 277.81C1018.42 271.21 1023.52 255.16 1028.92 245.56C1029.82 244.36 1032.07 242.71 1033.57 242.56C1035.07 242.56 1036.42 243.46 1037.62 244.51C1037.77 245.11 1037.92 245.41 1038.07 246.01C1038.07 246.61 1037.77 247.66 1037.17 247.96C1033.72 251.86 1031.62 256.81 1029.52 261.61C1027.42 266.56 1020.52 284.26 1019.17 288.91C1020.22 296.41 1024.12 314.11 1027.72 324.16C1028.47 324.91 1028.62 325.96 1028.62 326.86C1028.62 327.91 1027.87 330.01 1026.97 330.01C1022.02 330.31 1015.72 311.56 1014.07 302.41C1011.67 309.16 1007.32 322.36 1004.32 331.66Z" fill="white"/>
<path d="M1072.27 265.66C1072.12 276.01 1064.32 295.06 1051.57 300.31C1050.82 306.91 1050.37 319.66 1050.07 326.26C1050.07 328.51 1050.82 330.46 1050.67 332.56C1050.67 334.66 1050.67 336.91 1047.97 336.91C1044.07 336.76 1042.42 334.36 1042.42 330.76C1042.42 316.66 1043.62 298.66 1044.97 284.56C1046.17 271.66 1047.52 256.06 1047.22 249.76C1047.22 248.71 1045.87 247.06 1046.17 246.01C1046.32 244.51 1048.72 244.06 1050.07 244.06C1061.47 244.36 1072.57 250.81 1072.27 265.66ZM1052.02 291.76C1060.27 285.46 1064.92 272.26 1064.92 265.66C1065.07 257.56 1061.62 251.71 1055.77 251.41C1054.87 264.01 1053.07 278.86 1052.02 291.76Z" fill="white"/>
<path d="M1085.77 245.71C1086.37 244.21 1087.12 243.31 1088.92 243.16C1090.57 243.01 1093.12 242.71 1095.82 242.71C1100.32 242.71 1105.12 243.61 1105.42 247.96C1105.57 249.76 1104.37 250.51 1102.72 250.51L1089.82 251.26C1090.42 251.86 1091.62 252.91 1091.62 253.96C1091.62 255.16 1091.02 256.21 1090.72 257.56C1089.37 264.61 1089.07 275.71 1088.32 282.01L1101.07 282.46C1102.87 282.46 1104.07 282.91 1104.07 284.56C1104.07 285.76 1103.02 287.41 1101.82 287.86C1100.92 287.86 1099.72 288.46 1098.82 288.61C1095.97 288.91 1091.47 289.06 1088.62 289.81C1086.82 290.26 1087.27 292.36 1086.97 294.46C1085.62 304.66 1085.32 313.96 1085.47 324.46C1089.07 323.41 1093.12 321.16 1096.57 321.16C1099.12 321.16 1102.57 322.06 1102.57 325.06C1102.57 326.86 1101.37 327.46 1099.57 327.61C1093.27 328.51 1088.17 332.71 1080.52 332.86C1077.67 332.86 1077.07 329.41 1077.07 327.31C1077.07 317.86 1077.37 308.26 1078.12 298.96C1079.17 284.41 1080.82 269.56 1082.17 255.01C1082.62 251.11 1082.32 251.11 1086.07 249.01L1085.77 245.71Z" fill="white"/>
<path d="M1117.87 241.96C1120.42 241.96 1122.07 243.31 1123.27 245.41C1126.42 247.96 1134.22 251.11 1134.52 264.46C1134.82 276.31 1128.07 285.01 1123.12 290.71C1123.87 291.46 1126.87 299.56 1127.17 300.31C1131.07 309.31 1136.32 318.61 1137.37 320.56C1137.97 321.91 1136.47 322.51 1135.12 322.51H1134.22C1128.07 321.61 1120.57 302.86 1118.17 297.76C1118.17 303.16 1117.72 306.01 1117.57 310.06C1117.42 312.16 1116.82 321.31 1116.97 328.21C1117.12 332.56 1116.82 335.86 1115.02 335.86C1111.27 335.86 1109.47 334.96 1109.32 330.91C1109.17 324.91 1109.47 318.91 1109.77 313.06C1110.22 300.76 1110.67 288.61 1111.27 276.46C1111.57 271.96 1113.07 258.31 1112.77 253.96C1112.62 249.46 1110.52 249.01 1110.52 247.96C1112.77 245.41 1114.27 242.11 1117.87 241.96ZM1127.02 264.76C1127.17 258.91 1123.87 254.86 1121.17 254.41C1120.72 260.86 1119.37 276.76 1118.77 283.21C1122.37 280.66 1126.72 273.01 1127.02 264.76Z" fill="white"/>
<path d="M1152.67 247.66C1151.02 272.86 1151.02 303.61 1148.47 330.31C1148.17 332.41 1147.87 333.16 1146.07 333.16C1145.47 333.16 1144.87 333.16 1143.97 333.01C1142.17 332.71 1140.97 329.41 1141.27 327.61C1140.97 327.31 1141.12 326.71 1141.12 326.26C1142.77 303.16 1143.97 278.71 1144.27 255.91C1144.27 253.06 1144.27 250.66 1144.57 247.81C1145.17 244.96 1146.67 244.06 1149.37 244.06C1151.02 245.26 1152.97 244.96 1152.67 247.66Z" fill="white"/>
<path d="M1188.07 320.41C1188.07 322.66 1187.62 325.36 1184.62 325.36C1181.62 325.36 1180.57 323.11 1179.97 320.71C1177.27 311.11 1172.32 285.76 1169.17 272.71C1169.17 273.76 1169.17 275.11 1169.02 276.16C1168.27 282.91 1166.47 316.21 1167.82 332.26C1167.82 332.56 1168.12 333.01 1168.12 333.61C1168.12 334.81 1164.07 334.96 1163.32 334.96C1159.57 334.96 1159.57 324.76 1159.57 322.21C1159.42 310.06 1159.87 300.01 1160.62 286.81C1161.22 276.91 1162.12 266.56 1162.12 256.66C1162.12 254.71 1161.67 249.01 1161.67 246.16C1161.67 243.31 1163.02 242.71 1166.02 242.71C1169.02 242.71 1172.32 245.86 1172.62 249.01C1175.77 270.91 1179.52 288.16 1184.62 309.61C1188.37 292.66 1196.47 264.61 1200.67 248.56C1201.57 245.41 1202.17 244.66 1205.77 244.66C1209.37 244.66 1212.97 247.36 1212.97 250.51C1212.67 278.26 1210.12 303.61 1209.82 331.36C1209.82 333.91 1209.37 333.91 1206.52 333.91C1204.12 333.91 1201.42 328.51 1201.42 325.96C1201.42 313.51 1203.07 310.51 1203.52 298.81C1204.12 287.71 1205.47 268.21 1205.62 256.96C1199.02 280.21 1192.12 307.36 1188.07 320.41Z" fill="white"/>
<path d="M1226.32 245.71C1226.92 244.21 1227.67 243.31 1229.47 243.16C1231.12 243.01 1233.67 242.71 1236.37 242.71C1240.87 242.71 1245.67 243.61 1245.97 247.96C1246.12 249.76 1244.92 250.51 1243.27 250.51L1230.37 251.26C1230.97 251.86 1232.17 252.91 1232.17 253.96C1232.17 255.16 1231.57 256.21 1231.27 257.56C1229.92 264.61 1229.62 275.71 1228.87 282.01L1241.62 282.46C1243.42 282.46 1244.62 282.91 1244.62 284.56C1244.62 285.76 1243.57 287.41 1242.37 287.86C1241.47 287.86 1240.27 288.46 1239.37 288.61C1236.52 288.91 1232.02 289.06 1229.17 289.81C1227.37 290.26 1227.82 292.36 1227.52 294.46C1226.17 304.66 1225.87 313.96 1226.02 324.46C1229.62 323.41 1233.67 321.16 1237.12 321.16C1239.67 321.16 1243.12 322.06 1243.12 325.06C1243.12 326.86 1241.92 327.46 1240.12 327.61C1233.82 328.51 1228.72 332.71 1221.07 332.86C1218.22 332.86 1217.62 329.41 1217.62 327.31C1217.62 317.86 1217.92 308.26 1218.67 298.96C1219.72 284.41 1221.37 269.56 1222.72 255.01C1223.17 251.11 1222.87 251.11 1226.62 249.01L1226.32 245.71Z" fill="white"/>
<path d="M1275.66 260.11C1275.66 257.56 1275.66 246.61 1277.46 245.71C1278.06 245.26 1278.66 245.11 1279.26 245.11C1281.36 245.11 1283.16 246.91 1283.16 248.71C1283.31 253.96 1282.86 261.76 1282.56 267.01C1281.81 280.81 1281.36 304.96 1281.06 318.91C1281.06 320.86 1281.66 322.66 1281.66 324.61C1281.66 326.86 1280.01 328.06 1277.16 328.06C1277.01 329.71 1276.11 330.91 1274.46 331.06C1273.11 331.06 1271.76 330.01 1271.46 328.81C1267.41 312.91 1263.96 291.91 1263.66 290.26C1263.36 288.61 1260.21 268.36 1259.46 267.46C1259.61 270.61 1259.46 277.21 1259.31 280.21C1259.31 281.11 1258.26 325.06 1256.76 331.36C1256.31 333.31 1254.66 334.21 1253.31 334.21C1251.96 334.21 1250.76 333.46 1250.46 332.11C1248.96 326.41 1250.31 319.81 1251.06 311.41C1251.36 304.81 1251.66 297.01 1251.81 290.26C1252.26 278.11 1252.71 265.96 1252.56 253.81C1252.41 248.26 1254.36 244.66 1258.26 244.66C1261.71 244.66 1263.36 245.41 1264.11 249.01C1265.01 252.61 1265.31 256.51 1265.91 260.26C1266.96 266.11 1268.16 272.86 1269.06 278.86C1270.56 286.96 1271.76 294.16 1273.41 302.26C1273.86 304.06 1274.31 306.01 1274.31 307.96C1274.46 293.56 1275.51 265.96 1275.66 260.11Z" fill="white"/>
<path d="M1308.06 262.36C1307.01 272.71 1304.16 313.51 1304.46 325.51C1304.61 327.31 1305.51 328.81 1305.51 330.61C1305.51 332.56 1303.86 333.61 1302.06 333.61C1298.16 333.76 1296.66 330.91 1296.51 327.46C1296.21 314.56 1297.56 300.31 1298.46 287.71C1299.06 277.81 1300.41 262.66 1300.56 255.16C1300.56 253.36 1299.66 253.36 1297.86 253.36C1295.01 253.51 1296.66 253.66 1293.96 253.81C1291.26 253.96 1290.36 252.01 1290.06 249.76C1289.31 249.16 1289.46 248.11 1289.46 247.36C1289.31 246.16 1290.36 245.11 1291.41 245.11H1291.71C1293.06 245.11 1294.26 245.71 1295.61 245.71H1295.91C1297.71 245.56 1299.66 245.56 1301.76 245.56C1308.21 245.56 1314.96 246.01 1316.61 246.76C1318.26 247.66 1319.16 249.16 1319.31 250.96C1319.31 252.31 1318.26 253.51 1316.91 253.36H1310.01C1308.36 256.21 1308.36 259.36 1308.06 262.36Z" fill="white"/>
<path d="M1331.01 325.36C1335.81 324.91 1339.11 315.61 1338.21 306.61C1337.16 294.46 1326.21 286.36 1325.31 274.96C1324.41 265.51 1331.76 247.21 1344.81 246.16C1347.06 246.16 1349.61 246.46 1350.36 249.01C1350.66 250.06 1350.51 254.11 1348.41 254.11C1348.11 254.11 1347.81 253.96 1347.51 253.81C1338.96 253.96 1331.76 266.11 1332.51 274.06C1333.41 282.46 1344.36 291.31 1345.71 305.71C1346.46 314.41 1343.01 331.96 1332.51 333.16C1328.46 333.16 1324.86 330.16 1324.56 326.11C1324.56 325.36 1326.51 322.96 1327.26 323.11C1328.76 324.46 1329.51 325.51 1331.01 325.36Z" fill="white"/>
<path d="M58.01 145.82C58.06 145.68 58.11 145.54 58.16 145.4" stroke="#F05A31" stroke-width="22" stroke-miterlimit="10"/>
<path d="M99.38 344.97C89.33 334.09 80.48 322.07 73.06 309.13" stroke="#F05A31" stroke-width="22" stroke-miterlimit="10"/>
<path d="M141.28 379.42C129.35 372.09 118.26 363.54 108.19 353.93" stroke="#F05A31" stroke-width="22" stroke-miterlimit="10"/>
<path d="M180.5 397.9C173.6 395.54 166.88 392.81 160.35 389.73" stroke="#F05A31" stroke-width="22" stroke-miterlimit="10"/>
<path d="M237.65 408.38C222.94 407.88 208.63 405.77 194.9 402.22" stroke="#F05A31" stroke-width="22" stroke-miterlimit="10"/>
<path d="M359.62 371.5C328.62 393.78 290.9 407.29 250.08 408.43" stroke="#F05A31" stroke-width="22" stroke-miterlimit="10"/>
<path d="M403.57 328.08C395.86 338.54 387.14 348.21 377.55 356.95" stroke="#F05A31" stroke-width="22" stroke-miterlimit="10"/>
<path d="M385.28 72.48C392.66 79.97 399.44 88.06 405.55 96.65" stroke="#F05A31" stroke-width="22" stroke-miterlimit="10"/>
<path d="M371.39 105.01L428.18 138.27L428.59 72.45L371.39 105.01Z" fill="#F05A31"/>
<path d="M341.05 38.67C352.53 45.12 363.3 52.68 373.22 61.2" stroke="#F05A31" stroke-width="22" stroke-miterlimit="10"/>
<path d="M292.51 19.38C298.62 20.91 304.62 22.72 310.5 24.8" stroke="#F05A31" stroke-width="22" stroke-miterlimit="10"/>
<path d="M244.05 13.5C244.2 13.5 244.35 13.5 244.5 13.5C256.57 13.5 268.39 14.58 279.86 16.66" stroke="#F05A31" stroke-width="22" stroke-miterlimit="10"/>
<path d="M181.45 23.78C196.78 18.62 212.96 15.29 229.72 14.05" stroke="#F05A31" stroke-width="22" stroke-miterlimit="10"/>
<path d="M154.9 34.95C159.85 32.43 164.92 30.11 170.1 28" stroke="#F05A31" stroke-width="22" stroke-miterlimit="10"/>
<path d="M114.96 61.91C119.26 58.17 123.72 54.62 128.33 51.26" stroke="#F05A31" stroke-width="22" stroke-miterlimit="10"/>
<path d="M74.66 110.14C82.24 97.4 91.22 85.58 101.38 74.9" stroke="#F05A31" stroke-width="22" stroke-miterlimit="10"/>
<path d="M58.16 145.4C60.42 138.98 63 132.72 65.88 126.62" stroke="#F05A31" stroke-width="22" stroke-miterlimit="10"/>
</svg>
