<svg width="706" height="558" viewBox="0 0 706 558" fill="none" xmlns="http://www.w3.org/2000/svg">
<path d="M249.923 202.76C253.133 202.76 255.693 203.72 258.583 204.04C261.793 206.93 264.353 209.49 264.673 213.66C264.993 222.96 265.953 232.58 265.953 240.27C266.913 272.01 267.873 303.44 269.483 333.58C269.483 335.18 269.803 337.43 270.763 337.75C271.403 338.07 271.083 336.15 271.723 333.58C278.453 298.63 287.113 252.13 297.053 213.02C298.973 205.97 300.263 199.23 302.823 192.5C304.423 192.5 309.553 191.22 312.123 191.22C316.293 191.22 318.853 195.07 317.893 199.24C308.913 236.11 300.583 274.91 292.883 312.11C288.713 330.39 287.113 345.14 283.583 364.7C282.623 368.87 281.023 373.04 281.023 377.2C280.703 382.65 277.173 385.86 272.363 385.86C271.083 385.86 269.803 385.54 268.193 384.9C264.343 382.65 261.783 383.3 258.253 379.77C256.973 378.17 256.653 375.6 256.653 374C256.653 370.15 256.333 367.59 256.333 364.7C252.803 341.93 251.203 319.17 250.243 296.4C248.963 268.82 250.243 239.65 245.753 211.75C244.473 209.18 245.753 206.3 245.433 203.41C247.033 202.77 248.643 202.77 249.923 202.77V202.76Z" fill="black"/>
<path d="M351.893 275.54C352.853 258.23 352.853 222.95 354.133 206.6C355.093 198.9 351.893 189.93 362.473 188.32C365.683 188 374.013 192.81 374.333 196.34C374.653 198.26 373.693 200.19 373.373 201.79C368.243 239.31 368.883 262.71 368.563 295.1C368.243 314.34 367.923 334.22 367.283 353.46C366.963 362.12 367.923 387.13 358.623 387.13C350.923 387.13 342.913 378.79 347.723 378.79C349.643 361.8 350.613 311.77 351.893 275.54Z" fill="black"/>
<path d="M425.633 373.02C442.953 372.38 449.043 343.84 448.723 330.05C447.763 296.7 415.053 288.69 413.453 246.68C413.133 225.84 440.063 188 461.873 187.36C468.603 187.36 476.303 192.81 476.623 199.86C476.623 203.39 473.733 205.95 470.213 205.95C469.253 205.95 467.973 205.63 466.683 204.99C446.803 205.63 428.843 232.57 429.483 250.84C430.123 276.49 463.153 287.39 464.753 331C465.073 351.84 450.643 388.08 427.233 389.04C419.533 389.36 412.163 383.59 410.563 376.21C412.163 373 414.413 369.48 417.293 369.16C419.543 372.69 423.063 373.01 425.633 373.01V373.02Z" fill="black"/>
<path d="M508.863 286.17C509.473 275.15 509.473 252.7 510.293 242.3C510.903 237.4 508.863 231.69 515.603 230.67C517.643 230.47 522.953 233.53 523.153 235.77C523.353 236.99 522.743 238.22 522.543 239.24C519.273 263.11 519.683 278.01 519.483 298.62C519.283 310.86 519.073 323.51 518.663 335.76C518.463 341.27 519.073 357.19 513.153 357.19C508.253 357.19 503.153 351.89 506.213 351.89C507.433 341.07 508.053 309.24 508.863 286.18V286.17Z" fill="black"/>
<path d="M555.183 243.72C551.103 243.92 547.833 240.86 547.633 236.58C547.633 233.52 548.243 230.66 551.713 230.66C552.933 230.66 554.573 231.27 555.793 231.27C558.853 231.47 561.713 231.68 564.773 231.68L570.893 231.27C572.933 231.27 574.973 231.07 577.223 231.07C581.513 231.07 585.793 231.27 589.673 231.89C592.323 232.09 592.733 233.52 593.553 235.36C593.753 237.4 592.533 239.24 590.903 240.26L576.623 240.67C575.193 247.61 574.173 253.93 573.363 260.67C569.693 288.01 566.833 315.97 567.653 343.52C567.653 345.36 567.853 347.4 568.673 348.82C568.873 350.66 569.083 352.49 569.083 354.13C569.083 357.19 566.433 358.42 563.773 358.42C557.443 358.42 557.443 351.69 557.443 346.59C556.423 315.57 560.093 284.35 563.563 253.54C563.763 249.46 564.383 245.79 564.173 241.91C560.503 242.52 559.073 243.75 555.193 243.75L555.183 243.72Z" fill="black"/>
<path d="M124.593 232.58C128.033 232.58 130.263 234.4 131.883 237.24C136.133 240.68 146.673 244.94 147.083 262.97C147.493 278.98 138.373 290.73 131.683 298.43C132.693 299.44 136.753 310.38 137.153 311.4C142.423 323.56 149.513 336.12 150.933 338.75C151.743 340.57 149.713 341.38 147.893 341.38H146.683C138.373 340.16 128.243 314.84 125.003 307.95C125.003 315.24 124.393 319.09 124.193 324.56C123.993 327.4 123.183 339.76 123.383 349.08C123.583 354.96 123.183 359.41 120.753 359.41C115.683 359.41 113.253 358.19 113.053 352.72C112.853 344.61 113.253 336.51 113.663 328.61C114.273 311.99 114.883 295.58 115.693 279.17C116.103 273.09 118.123 254.65 117.723 248.78C117.523 242.7 114.683 242.09 114.683 240.68C117.723 237.24 119.753 232.78 124.613 232.57L124.593 232.58ZM136.953 263.38C137.153 255.48 132.703 250.01 129.053 249.4C128.443 258.11 126.623 279.59 125.813 288.3C130.673 284.85 136.553 274.52 136.953 263.38Z" fill="black"/>
<path d="M183.143 237.64C183.953 235.61 184.963 234.4 187.393 234.19C189.623 233.99 193.063 233.58 196.713 233.58C202.793 233.58 209.273 234.8 209.683 240.67C209.883 243.1 208.263 244.11 206.033 244.11L188.603 245.12C189.413 245.93 191.033 247.35 191.033 248.77C191.033 250.39 190.223 251.81 189.813 253.63C187.993 263.15 187.583 278.15 186.573 286.66L203.793 287.27C206.223 287.27 207.843 287.88 207.843 290.11C207.843 291.73 206.423 293.96 204.803 294.57C203.583 294.57 201.963 295.38 200.753 295.58C196.903 295.99 190.823 296.19 186.973 297.2C184.543 297.81 185.153 300.64 184.743 303.48C182.923 317.26 182.513 329.82 182.713 344C187.573 342.58 193.043 339.54 197.703 339.54C201.143 339.54 205.803 340.76 205.803 344.81C205.803 347.24 204.183 348.05 201.753 348.25C193.243 349.47 186.353 355.14 176.023 355.34C172.173 355.34 171.363 350.68 171.363 347.84C171.363 335.08 171.773 322.11 172.783 309.55C174.203 289.9 176.433 269.84 178.253 250.18C178.863 244.91 178.453 244.91 183.523 242.07L183.113 237.61L183.143 237.64Z" fill="black"/>
<path d="M126.093 297.06C126.093 297.06 137.123 322.14 145.493 337.39C151.793 348.85 157.983 358.83 160.353 358.62" fill="black"/>
<path d="M126.093 297.06C126.093 297.06 137.123 322.14 145.493 337.39C151.793 348.85 157.983 358.83 160.353 358.62" stroke="black" stroke-width="10" stroke-linecap="round" stroke-linejoin="round"/>
<path d="M166.323 214.32C166.373 214.18 166.423 214.04 166.473 213.9" stroke="#F05A31" stroke-width="22" stroke-miterlimit="10"/>
<path d="M207.693 413.47C197.643 402.59 188.793 390.57 181.373 377.63" stroke="#F05A31" stroke-width="22" stroke-miterlimit="10"/>
<path d="M249.593 447.92C237.663 440.59 226.573 432.04 216.503 422.43" stroke="#F05A31" stroke-width="22" stroke-miterlimit="10"/>
<path d="M288.813 466.4C281.913 464.04 275.193 461.31 268.663 458.23" stroke="#F05A31" stroke-width="22" stroke-miterlimit="10"/>
<path d="M345.963 476.88C331.253 476.38 316.943 474.27 303.213 470.72" stroke="#F05A31" stroke-width="22" stroke-miterlimit="10"/>
<path d="M467.933 440C436.933 462.28 399.213 475.79 358.393 476.93" stroke="#F05A31" stroke-width="22" stroke-miterlimit="10"/>
<path d="M511.883 396.58C504.173 407.04 495.453 416.71 485.863 425.45" stroke="#F05A31" stroke-width="22" stroke-miterlimit="10"/>
<path d="M493.593 140.98C500.973 148.47 507.753 156.56 513.863 165.15" stroke="#F05A31" stroke-width="22" stroke-miterlimit="10"/>
<path d="M479.703 173.51L536.493 206.77L536.903 140.95L479.703 173.51Z" fill="#F05A31"/>
<path d="M449.363 107.17C460.843 113.62 471.613 121.18 481.533 129.7" stroke="#F05A31" stroke-width="22" stroke-miterlimit="10"/>
<path d="M400.823 87.88C406.933 89.41 412.933 91.22 418.813 93.3" stroke="#F05A31" stroke-width="22" stroke-miterlimit="10"/>
<path d="M352.363 82C352.513 82 352.663 82 352.813 82C364.883 82 376.703 83.08 388.173 85.16" stroke="#F05A31" stroke-width="22" stroke-miterlimit="10"/>
<path d="M289.763 92.28C305.093 87.12 321.273 83.79 338.033 82.55" stroke="#F05A31" stroke-width="22" stroke-miterlimit="10"/>
<path d="M263.213 103.45C268.163 100.93 273.233 98.61 278.413 96.5" stroke="#F05A31" stroke-width="22" stroke-miterlimit="10"/>
<path d="M223.273 130.41C227.573 126.67 232.033 123.12 236.643 119.76" stroke="#F05A31" stroke-width="22" stroke-miterlimit="10"/>
<path d="M182.973 178.64C190.553 165.9 199.533 154.08 209.693 143.4" stroke="#F05A31" stroke-width="22" stroke-miterlimit="10"/>
<path d="M166.473 213.9C168.733 207.48 171.313 201.22 174.193 195.12" stroke="#F05A31" stroke-width="22" stroke-miterlimit="10"/>
</svg>
