<svg width="481" height="421" viewBox="0 0 481 421" fill="none" xmlns="http://www.w3.org/2000/svg">
<path d="M136.923 133.76C140.133 133.76 142.693 134.72 145.583 135.04C148.793 137.93 151.353 140.49 151.673 144.66C151.993 153.96 152.953 163.58 152.953 171.27C153.913 203.01 154.873 234.44 156.483 264.58C156.483 266.18 156.803 268.43 157.763 268.75C158.403 269.07 158.083 267.15 158.723 264.58C165.453 229.63 174.113 183.13 184.053 144.02C185.973 136.97 187.263 130.23 189.823 123.5C191.423 123.5 196.553 122.22 199.123 122.22C203.293 122.22 205.853 126.07 204.893 130.24C195.913 167.11 187.583 205.91 179.883 243.11C175.713 261.39 174.113 276.14 170.583 295.7C169.623 299.87 168.023 304.04 168.023 308.2C167.703 313.65 164.173 316.86 159.363 316.86C158.083 316.86 156.803 316.54 155.193 315.9C151.343 313.65 148.783 314.3 145.253 310.77C143.973 309.17 143.653 306.6 143.653 305C143.653 301.15 143.333 298.59 143.333 295.7C139.803 272.93 138.203 250.17 137.243 227.4C135.963 199.82 137.243 170.65 132.753 142.75C131.473 140.18 132.753 137.3 132.433 134.41C134.033 133.77 135.643 133.77 136.923 133.77V133.76Z" fill="white"/>
<path d="M238.893 206.54C239.853 189.23 239.853 153.95 241.133 137.6C242.093 129.9 238.893 120.93 249.473 119.32C252.683 119 261.013 123.81 261.333 127.34C261.653 129.26 260.693 131.19 260.373 132.79C255.243 170.31 255.883 193.71 255.563 226.1C255.243 245.34 254.923 265.22 254.283 284.46C253.963 293.12 254.923 318.13 245.623 318.13C237.923 318.13 229.913 309.79 234.723 309.79C236.643 292.8 237.613 242.77 238.893 206.54Z" fill="white"/>
<path d="M312.633 304.02C329.953 303.38 336.043 274.84 335.723 261.05C334.763 227.7 302.053 219.69 300.453 177.68C300.133 156.84 327.063 119 348.873 118.36C355.603 118.36 363.303 123.81 363.623 130.86C363.623 134.39 360.733 136.95 357.213 136.95C356.253 136.95 354.973 136.63 353.683 135.99C333.803 136.63 315.843 163.57 316.483 181.84C317.123 207.49 350.153 218.39 351.753 262C352.073 282.84 337.643 319.08 314.233 320.04C306.533 320.36 299.163 314.59 297.563 307.21C299.163 304 301.413 300.48 304.293 300.16C306.543 303.69 310.063 304.01 312.633 304.01V304.02Z" fill="white"/>
<path d="M395.863 217.17C396.473 206.15 396.473 183.7 397.293 173.3C397.903 168.4 395.863 162.69 402.603 161.67C404.643 161.47 409.953 164.53 410.153 166.77C410.353 167.99 409.743 169.22 409.543 170.24C406.273 194.11 406.683 209.01 406.483 229.62C406.283 241.86 406.073 254.51 405.663 266.76C405.463 272.27 406.073 288.19 400.153 288.19C395.253 288.19 390.153 282.89 393.213 282.89C394.433 272.07 395.053 240.24 395.863 217.18V217.17Z" fill="white"/>
<path d="M442.183 174.72C438.103 174.92 434.833 171.86 434.633 167.58C434.633 164.52 435.243 161.66 438.713 161.66C439.933 161.66 441.573 162.27 442.793 162.27C445.853 162.47 448.713 162.68 451.773 162.68L457.893 162.27C459.933 162.27 461.973 162.07 464.223 162.07C468.513 162.07 472.793 162.27 476.673 162.89C479.323 163.09 479.733 164.52 480.553 166.36C480.753 168.4 479.533 170.24 477.903 171.26L463.623 171.67C462.193 178.61 461.173 184.93 460.363 191.67C456.693 219.01 453.833 246.97 454.653 274.52C454.653 276.36 454.853 278.4 455.673 279.82C455.873 281.66 456.083 283.49 456.083 285.13C456.083 288.19 453.433 289.42 450.773 289.42C444.443 289.42 444.443 282.69 444.443 277.59C443.423 246.57 447.093 215.35 450.563 184.54C450.763 180.46 451.383 176.79 451.173 172.91C447.503 173.52 446.073 174.75 442.193 174.75L442.183 174.72Z" fill="white"/>
<path d="M11.5931 163.58C15.0331 163.58 17.2631 165.4 18.8831 168.24C23.1331 171.68 33.6731 175.94 34.0831 193.97C34.4931 209.98 25.3731 221.73 18.6831 229.43C19.6931 230.44 23.7531 241.38 24.1531 242.4C29.4231 254.56 36.5131 267.12 37.9331 269.75C38.7431 271.57 36.7131 272.38 34.8931 272.38H33.6831C25.3731 271.16 15.2431 245.84 12.0031 238.95C12.0031 246.24 11.3931 250.09 11.1931 255.56C10.9931 258.4 10.1831 270.76 10.3831 280.08C10.5831 285.96 10.1831 290.41 7.75314 290.41C2.68314 290.41 0.253136 289.19 0.0531356 283.72C-0.146864 275.61 0.253136 267.51 0.663136 259.61C1.27314 242.99 1.88314 226.58 2.69314 210.17C3.10314 204.09 5.12314 185.65 4.72314 179.78C4.52314 173.7 1.68314 173.09 1.68314 171.68C4.72314 168.24 6.75314 163.78 11.6131 163.57L11.5931 163.58ZM23.9531 194.38C24.1531 186.48 19.7031 181.01 16.0531 180.4C15.4431 189.11 13.6231 210.59 12.8131 219.3C17.6731 215.85 23.5531 205.52 23.9531 194.38Z" fill="white"/>
<path d="M70.1431 168.64C70.9531 166.61 71.9631 165.4 74.3931 165.19C76.6231 164.99 80.0631 164.58 83.7131 164.58C89.7931 164.58 96.2731 165.8 96.6831 171.67C96.8831 174.1 95.2631 175.11 93.0331 175.11L75.6031 176.12C76.4131 176.93 78.0331 178.35 78.0331 179.77C78.0331 181.39 77.2231 182.81 76.8131 184.63C74.9931 194.15 74.5831 209.15 73.5731 217.66L90.7931 218.27C93.2231 218.27 94.8431 218.88 94.8431 221.11C94.8431 222.73 93.4231 224.96 91.8031 225.57C90.5831 225.57 88.9631 226.38 87.7531 226.58C83.9031 226.99 77.8231 227.19 73.9731 228.2C71.5431 228.81 72.1531 231.64 71.7431 234.48C69.9231 248.26 69.5131 260.82 69.7131 275C74.5731 273.58 80.0431 270.54 84.7031 270.54C88.1431 270.54 92.8031 271.76 92.8031 275.81C92.8031 278.24 91.1831 279.05 88.7531 279.25C80.2431 280.47 73.3531 286.14 63.0231 286.34C59.1731 286.34 58.3631 281.68 58.3631 278.84C58.3631 266.08 58.7731 253.11 59.7831 240.55C61.2031 220.9 63.4331 200.84 65.2531 181.18C65.8631 175.91 65.4531 175.91 70.5231 173.07L70.1131 168.61L70.1431 168.64Z" fill="white"/>
<path d="M13.0931 228.06C13.0931 228.06 24.1231 253.14 32.4931 268.39C38.7931 279.85 44.9831 289.83 47.3531 289.62" fill="white"/>
<path d="M13.0931 228.06C13.0931 228.06 24.1231 253.14 32.4931 268.39C38.7931 279.85 44.9831 289.83 47.3531 289.62" stroke="white" stroke-width="10" stroke-linecap="round" stroke-linejoin="round"/>
<path d="M53.3231 145.32C53.3731 145.18 53.4231 145.04 53.4731 144.9" stroke="#F05A31" stroke-width="22" stroke-miterlimit="10"/>
<path d="M94.6931 344.47C84.6431 333.59 75.7931 321.57 68.3731 308.63" stroke="#F05A31" stroke-width="22" stroke-miterlimit="10"/>
<path d="M136.593 378.92C124.663 371.59 113.573 363.04 103.503 353.43" stroke="#F05A31" stroke-width="22" stroke-miterlimit="10"/>
<path d="M175.813 397.4C168.913 395.04 162.193 392.31 155.663 389.23" stroke="#F05A31" stroke-width="22" stroke-miterlimit="10"/>
<path d="M232.963 407.88C218.253 407.38 203.943 405.27 190.213 401.72" stroke="#F05A31" stroke-width="22" stroke-miterlimit="10"/>
<path d="M354.933 371C323.933 393.28 286.213 406.79 245.393 407.93" stroke="#F05A31" stroke-width="22" stroke-miterlimit="10"/>
<path d="M398.883 327.58C391.173 338.04 382.453 347.71 372.863 356.45" stroke="#F05A31" stroke-width="22" stroke-miterlimit="10"/>
<path d="M380.593 71.98C387.973 79.47 394.753 87.56 400.863 96.15" stroke="#F05A31" stroke-width="22" stroke-miterlimit="10"/>
<path d="M366.703 104.51L423.493 137.77L423.903 71.95L366.703 104.51Z" fill="#F05A31"/>
<path d="M336.363 38.17C347.843 44.62 358.613 52.18 368.533 60.7" stroke="#F05A31" stroke-width="22" stroke-miterlimit="10"/>
<path d="M287.823 18.88C293.933 20.41 299.933 22.22 305.813 24.3" stroke="#F05A31" stroke-width="22" stroke-miterlimit="10"/>
<path d="M239.363 13C239.513 13 239.663 13 239.813 13C251.883 13 263.703 14.08 275.173 16.16" stroke="#F05A31" stroke-width="22" stroke-miterlimit="10"/>
<path d="M176.763 23.28C192.093 18.12 208.273 14.79 225.033 13.55" stroke="#F05A31" stroke-width="22" stroke-miterlimit="10"/>
<path d="M150.213 34.45C155.163 31.93 160.233 29.61 165.413 27.5" stroke="#F05A31" stroke-width="22" stroke-miterlimit="10"/>
<path d="M110.273 61.41C114.573 57.67 119.033 54.12 123.643 50.76" stroke="#F05A31" stroke-width="22" stroke-miterlimit="10"/>
<path d="M69.9731 109.64C77.5531 96.9 86.5331 85.08 96.6931 74.4" stroke="#F05A31" stroke-width="22" stroke-miterlimit="10"/>
<path d="M53.4731 144.9C55.7331 138.48 58.3131 132.22 61.1931 126.12" stroke="#F05A31" stroke-width="22" stroke-miterlimit="10"/>
</svg>
