<svg width="706" height="558" viewBox="0 0 706 558" fill="none" xmlns="http://www.w3.org/2000/svg">
<path d="M470.034 164.973C466.461 163.027 463.256 161.169 459.391 158.93C467.842 153.586 475.869 148.511 484.656 142.955C479.852 138.599 475.432 134.237 470.647 130.321C459.092 120.869 446.298 113.401 432.855 106.92C417.482 99.5082 401.478 94.14 384.559 92.1028C371.678 90.5517 358.613 88.7092 345.746 89.3462C331.667 90.0431 317.521 92.6109 303.78 95.921C292.514 98.6346 281.361 102.742 270.96 107.861C259.935 113.288 249.334 119.945 239.513 127.346C230.185 134.377 221.253 142.337 213.694 151.208C204.535 161.958 196.448 173.747 188.955 185.748C183.925 193.805 180.736 203.011 176.715 211.699C175.59 214.129 174.602 215.624 171.136 214.208C163.481 211.082 155.575 208.526 147.659 206.108C144.716 205.209 145.186 204.009 145.921 201.84C152.299 183.02 161.238 165.407 173.179 149.655C182.401 137.49 192.77 126.078 203.538 115.233C215.304 103.381 229.198 94.0619 243.682 85.6993C263.565 74.2196 284.872 66.4015 307.195 61.4329C315.291 59.6309 323.642 58.7027 331.93 58.1001C342.327 57.3443 352.796 56.7863 363.203 57.1124C386.194 57.8327 408.502 62.5839 430.055 70.5573C448.91 77.5324 466.646 86.8055 482.627 99.0337C493.068 107.023 502.877 115.84 513.318 124.578C521.11 119.655 529.579 114.304 538.539 108.643C539.101 110.495 539.879 111.956 539.943 113.448C540.38 123.536 540.646 133.631 541.004 143.723C541.662 162.248 542.34 180.772 543.033 199.295C543.061 200.051 543.318 200.799 543.772 203.067C518.754 190.108 494.577 177.585 470.034 164.973Z" fill="#F05A31"/>
<path d="M222.291 412.787C229.654 418.807 236.563 424.843 243.899 430.305C261.061 443.081 280.255 451.824 300.675 457.988C321.213 464.188 342.288 465.938 363.578 464.924C382.734 464.013 401.316 460.076 419.358 453.341C437.251 446.661 453.7 437.311 468.461 425.51C478.947 417.127 487.817 406.714 497.336 397.135C499.412 395.045 500.971 392.403 503.195 390.519C504.121 389.735 506.628 389.61 507.625 390.31C515.198 395.639 522.575 401.246 530.549 407.164C521.249 421.945 508.968 434.168 495.948 445.111C462.235 473.445 423.302 491.019 379.309 495.905C324.299 502.015 273.454 489.753 227.508 458.754C201.25 441.039 167.908 403.36 161.919 385.757C170.771 380.632 179.694 375.465 187.733 370.811C199.22 384.788 210.625 398.664 222.291 412.787Z" fill="#F05A31"/>
<path d="M520.863 284.81C521.473 273.79 521.473 251.34 522.293 240.94C522.903 236.04 520.863 230.33 527.603 229.31C529.643 229.11 534.953 232.17 535.153 234.41C535.353 235.63 534.743 236.86 534.543 237.88C531.273 261.75 531.683 276.65 531.483 297.26C531.283 309.5 531.073 322.15 530.663 334.4C530.463 339.91 531.073 355.83 525.153 355.83C520.253 355.83 515.153 350.53 518.213 350.53C519.433 339.71 520.053 307.88 520.863 284.82V284.81Z" fill="white"/>
<path d="M567.183 242.36C563.103 242.56 559.833 239.5 559.633 235.22C559.633 232.16 560.243 229.3 563.713 229.3C564.933 229.3 566.573 229.91 567.793 229.91C570.853 230.11 573.713 230.32 576.773 230.32L582.893 229.91C584.933 229.91 586.973 229.71 589.223 229.71C593.513 229.71 597.793 229.91 601.673 230.53C604.323 230.73 604.733 232.16 605.553 234C605.753 236.04 604.533 237.88 602.903 238.9L588.623 239.31C587.193 246.25 586.173 252.57 585.363 259.31C581.693 286.65 578.833 314.61 579.653 342.16C579.653 344 579.853 346.04 580.673 347.46C580.873 349.3 581.083 351.13 581.083 352.77C581.083 355.83 578.433 357.06 575.773 357.06C569.443 357.06 569.443 350.33 569.443 345.23C568.423 314.21 572.093 282.99 575.563 252.18C575.763 248.1 576.383 244.43 576.173 240.55C572.503 241.16 571.073 242.39 567.193 242.39L567.183 242.36Z" fill="white"/>
<path d="M261.923 201.4C265.133 201.4 267.693 202.36 270.583 202.68C273.793 205.57 276.353 208.13 276.673 212.3C276.993 221.6 277.953 231.22 277.953 238.91C278.913 270.65 279.873 302.08 281.483 332.22C281.483 333.82 281.803 336.07 282.763 336.39C283.403 336.71 283.083 334.79 283.723 332.22C290.453 297.27 299.113 250.77 309.053 211.66C310.973 204.61 312.263 197.87 314.823 191.14C316.423 191.14 321.553 189.86 324.123 189.86C328.293 189.86 330.853 193.71 329.893 197.88C320.913 234.75 312.583 273.55 304.883 310.75C300.713 329.03 299.113 343.78 295.583 363.34C294.623 367.51 293.023 371.68 293.023 375.84C292.703 381.29 289.173 384.5 284.363 384.5C283.083 384.5 281.803 384.18 280.193 383.54C276.343 381.29 273.783 381.94 270.253 378.41C268.973 376.81 268.653 374.24 268.653 372.64C268.653 368.79 268.333 366.23 268.333 363.34C264.803 340.57 263.203 317.81 262.243 295.04C260.963 267.46 262.243 238.29 257.753 210.39C256.473 207.82 257.753 204.94 257.433 202.05C259.033 201.41 260.643 201.41 261.923 201.41V201.4Z" fill="white"/>
<path d="M363.893 274.18C364.853 256.87 364.853 221.59 366.133 205.24C367.093 197.54 363.893 188.57 374.473 186.96C377.683 186.64 386.013 191.45 386.333 194.98C386.653 196.9 385.693 198.83 385.373 200.43C380.243 237.95 380.883 261.35 380.563 293.74C380.243 312.98 379.923 332.86 379.283 352.1C378.963 360.76 379.923 385.77 370.623 385.77C362.923 385.77 354.913 377.43 359.723 377.43C361.643 360.44 362.613 310.41 363.893 274.18Z" fill="white"/>
<path d="M437.633 371.66C454.953 371.02 461.043 342.48 460.723 328.69C459.763 295.34 427.053 287.33 425.453 245.32C425.133 224.48 452.063 186.64 473.873 186C480.603 186 488.303 191.45 488.623 198.5C488.623 202.03 485.733 204.59 482.213 204.59C481.253 204.59 479.973 204.27 478.683 203.63C458.803 204.27 440.843 231.21 441.483 249.48C442.123 275.13 475.153 286.03 476.753 329.64C477.073 350.48 462.643 386.72 439.233 387.68C431.533 388 424.163 382.23 422.563 374.85C424.163 371.64 426.413 368.12 429.293 367.8C431.543 371.33 435.063 371.65 437.633 371.65V371.66Z" fill="white"/>
<path d="M136.593 231.22C140.033 231.22 142.263 233.04 143.883 235.88C148.133 239.32 158.673 243.58 159.083 261.61C159.493 277.62 150.373 289.37 143.683 297.07C144.693 298.08 148.753 309.02 149.153 310.04C154.423 322.2 161.513 334.76 162.933 337.39C163.743 339.21 161.713 340.02 159.893 340.02H158.683C150.373 338.8 140.243 313.48 137.003 306.59C137.003 313.88 136.393 317.73 136.193 323.2C135.993 326.04 135.183 338.4 135.383 347.72C135.583 353.6 135.183 358.05 132.753 358.05C127.683 358.05 125.253 356.83 125.053 351.36C124.853 343.25 125.253 335.15 125.663 327.25C126.273 310.63 126.883 294.22 127.693 277.81C128.103 271.73 130.123 253.29 129.723 247.42C129.523 241.34 126.683 240.73 126.683 239.32C129.723 235.88 131.753 231.42 136.613 231.21L136.593 231.22ZM148.953 262.02C149.153 254.12 144.703 248.65 141.053 248.04C140.443 256.75 138.623 278.23 137.813 286.94C142.673 283.49 148.553 273.16 148.953 262.02Z" fill="white"/>
<path d="M195.143 236.28C195.953 234.25 196.963 233.04 199.393 232.83C201.623 232.63 205.063 232.22 208.713 232.22C214.793 232.22 221.273 233.44 221.683 239.31C221.883 241.74 220.263 242.75 218.033 242.75L200.603 243.76C201.413 244.57 203.033 245.99 203.033 247.41C203.033 249.03 202.223 250.45 201.813 252.27C199.993 261.79 199.583 276.79 198.573 285.3L215.793 285.91C218.223 285.91 219.843 286.52 219.843 288.75C219.843 290.37 218.423 292.6 216.803 293.21C215.583 293.21 213.963 294.02 212.753 294.22C208.903 294.63 202.823 294.83 198.973 295.84C196.543 296.45 197.153 299.28 196.743 302.12C194.923 315.9 194.513 328.46 194.713 342.64C199.573 341.22 205.043 338.18 209.703 338.18C213.143 338.18 217.803 339.4 217.803 343.45C217.803 345.88 216.183 346.69 213.753 346.89C205.243 348.11 198.353 353.78 188.023 353.98C184.173 353.98 183.363 349.32 183.363 346.48C183.363 333.72 183.773 320.75 184.783 308.19C186.203 288.54 188.433 268.48 190.253 248.82C190.863 243.55 190.453 243.55 195.523 240.71L195.113 236.25L195.143 236.28Z" fill="white"/>
<path d="M138.093 295.7C138.093 295.7 149.123 320.78 157.493 336.03C163.793 347.49 169.983 357.47 172.353 357.26" fill="white"/>
<path d="M138.093 295.7C138.093 295.7 149.123 320.78 157.493 336.03C163.793 347.49 169.983 357.47 172.353 357.26" stroke="white" stroke-width="10" stroke-linecap="round" stroke-linejoin="round"/>
</svg>
