<svg width="112.93" height="55.38" viewBox="3.05 7.57 112.93 55.38" fill="none" xmlns="http://www.w3.org/2000/svg">
<path d="M23.86 17.94H3.11V38.69H23.86V17.94Z" fill="#EE2B56"/>
<path d="M46.68 17.94H25.93V38.69H46.68V17.94Z" fill="#EE2B56"/>
<path d="M69.49 17.94H48.75V38.69H69.49V17.94Z" fill="#EE2B56"/>
<path d="M34.23 28.31H13.48V49.06H34.23V28.31Z" fill="#EE2B56"/>
<path d="M59.12 7.57H38.38V28.32H59.12V7.57Z" fill="#EE2B56"/>
<path d="M78.21 21.27H71.57V17.95H88.69V21.27H82.05V38.64H78.21V21.27Z" fill="white"/>
<path d="M107.94 31.04C107.94 32.29 107.72 33.41 107.27 34.41C106.82 35.41 106.21 36.27 105.44 36.97C104.66 37.67 103.75 38.21 102.69 38.59C101.63 38.97 100.48 39.16 99.23 39.16C97.98 39.16 96.84 38.97 95.78 38.59C94.72 38.21 93.8 37.67 93.01 36.97C92.22 36.27 91.61 35.42 91.18 34.41C90.74 33.41 90.52 32.28 90.52 31.04V17.95H94.36V30.91C94.36 31.42 94.44 31.95 94.6 32.5C94.76 33.05 95.03 33.57 95.41 34.03C95.79 34.5 96.29 34.88 96.91 35.18C97.53 35.48 98.3 35.63 99.22 35.63C100.14 35.63 100.91 35.48 101.54 35.18C102.16 34.88 102.66 34.49 103.04 34.03C103.42 33.56 103.69 33.05 103.85 32.5C104.01 31.95 104.1 31.41 104.1 30.91V17.95H107.94V31.04Z" fill="white"/>
<path d="M86.37 41.49C85.61 41.16 84.62 41 83.84 41C81.55 41 80.28 42.44 80.28 44.32C80.28 46.2 81.52 47.58 83.61 47.58C84.15 47.58 84.57 47.53 84.91 47.45V45.06H82.83V43.62H86.8V48.55C85.76 48.81 84.67 49.02 83.62 49.02C80.44 49.02 78.23 47.54 78.23 44.44C78.23 41.34 80.29 39.55 83.62 39.55C84.76 39.55 85.66 39.69 86.51 39.93L86.38 41.48L86.37 41.49Z" fill="white"/>
<path d="M88.73 42.12H90.41V43.65H90.44C90.52 43.02 91.3 41.96 92.42 41.96C92.6 41.96 92.8 41.96 93 42.01V43.78C92.83 43.69 92.49 43.64 92.16 43.64C90.63 43.64 90.63 45.42 90.63 46.39V48.87H88.74V42.12H88.73Z" fill="white"/>
<path d="M94.48 42.47C95.21 42.15 96.2 41.96 97 41.96C99.21 41.96 100.12 42.81 100.12 44.81V45.68C100.12 46.36 100.13 46.87 100.15 47.37C100.16 47.88 100.19 48.35 100.23 48.88H98.57C98.5 48.53 98.5 48.08 98.49 47.87H98.46C98.02 48.62 97.08 49.04 96.22 49.04C94.94 49.04 93.69 48.32 93.69 47.03C93.69 46.02 94.21 45.43 94.93 45.1C95.65 44.77 96.58 44.71 97.37 44.71H98.41C98.41 43.62 97.89 43.25 96.78 43.25C95.98 43.25 95.18 43.54 94.54 43.98L94.48 42.47ZM96.7 47.75C97.28 47.75 97.73 47.51 98.02 47.15C98.33 46.77 98.41 46.28 98.41 45.76H97.59C96.75 45.76 95.49 45.89 95.49 46.93C95.49 47.51 96.01 47.76 96.69 47.76L96.7 47.75Z" fill="white"/>
<path d="M101.68 42.12H107.42V43.56L103.82 47.51H107.55V48.87H101.53V47.44L105.2 43.48H101.68V42.12Z" fill="white"/>
<path d="M115.98 42.15H109.07V49.06H115.98V42.15Z" fill="#EE2B56"/>
<path d="M6.11 58.75V58.03H8.7V60.3C8.3 60.62 7.89 60.85 7.47 61.01C7.05 61.17 6.61 61.25 6.17 61.25C5.57 61.25 5.02 61.12 4.53 60.86C4.04 60.6 3.67 60.23 3.42 59.74C3.17 59.25 3.05 58.71 3.05 58.11C3.05 57.51 3.17 56.96 3.42 56.44C3.67 55.92 4.03 55.54 4.49 55.29C4.96 55.04 5.5 54.91 6.11 54.91C6.55 54.91 6.95 54.98 7.31 55.13C7.67 55.27 7.95 55.47 8.15 55.73C8.35 55.99 8.51 56.32 8.61 56.73L7.88 56.93C7.79 56.62 7.67 56.37 7.54 56.19C7.4 56.01 7.21 55.87 6.96 55.76C6.71 55.65 6.43 55.6 6.12 55.6C5.75 55.6 5.43 55.66 5.16 55.77C4.89 55.88 4.67 56.03 4.51 56.22C4.34 56.4 4.22 56.61 4.12 56.83C3.96 57.21 3.89 57.62 3.89 58.06C3.89 58.61 3.98 59.06 4.17 59.43C4.36 59.8 4.63 60.07 4.99 60.25C5.35 60.43 5.73 60.52 6.13 60.52C6.48 60.52 6.82 60.45 7.16 60.32C7.49 60.18 7.75 60.04 7.92 59.89V58.75H6.12H6.11Z" fill="white"/>
<path d="M9.79 61.15V56.72H10.46V57.39C10.63 57.08 10.79 56.87 10.94 56.77C11.09 56.67 11.25 56.62 11.42 56.62C11.67 56.62 11.93 56.7 12.19 56.86L11.93 57.56C11.75 57.45 11.56 57.4 11.38 57.4C11.22 57.4 11.07 57.45 10.94 57.55C10.81 57.65 10.72 57.79 10.66 57.96C10.58 58.23 10.54 58.52 10.54 58.84V61.16H9.79V61.15Z" fill="white"/>
<path d="M15.55 60.6C15.27 60.84 15 61.01 14.75 61.11C14.49 61.21 14.21 61.26 13.92 61.26C13.43 61.26 13.06 61.14 12.79 60.9C12.53 60.66 12.4 60.36 12.4 59.99C12.4 59.77 12.45 59.58 12.55 59.4C12.65 59.22 12.78 59.08 12.94 58.97C13.1 58.86 13.28 58.78 13.48 58.72C13.63 58.68 13.85 58.64 14.15 58.61C14.76 58.54 15.21 58.45 15.5 58.35C15.5 58.25 15.5 58.18 15.5 58.15C15.5 57.85 15.43 57.63 15.29 57.51C15.1 57.34 14.81 57.26 14.43 57.26C14.08 57.26 13.81 57.32 13.64 57.45C13.47 57.57 13.35 57.79 13.27 58.11L12.54 58.01C12.61 57.7 12.72 57.44 12.87 57.25C13.02 57.06 13.25 56.91 13.53 56.8C13.82 56.7 14.16 56.64 14.54 56.64C14.92 56.64 15.23 56.68 15.46 56.77C15.7 56.86 15.87 56.97 15.98 57.11C16.09 57.24 16.17 57.42 16.21 57.62C16.23 57.75 16.25 57.98 16.25 58.31V59.31C16.25 60.01 16.27 60.45 16.3 60.63C16.33 60.81 16.39 60.99 16.48 61.16H15.7C15.63 61 15.58 60.82 15.56 60.61L15.55 60.6ZM15.49 58.92C15.22 59.03 14.8 59.13 14.26 59.21C13.95 59.25 13.73 59.3 13.6 59.36C13.47 59.42 13.37 59.5 13.3 59.61C13.23 59.72 13.19 59.84 13.19 59.97C13.19 60.17 13.27 60.34 13.42 60.47C13.57 60.6 13.8 60.67 14.09 60.67C14.38 60.67 14.64 60.61 14.87 60.48C15.1 60.35 15.26 60.18 15.37 59.96C15.45 59.79 15.49 59.54 15.49 59.21V58.93V58.92Z" fill="white"/>
<path d="M17 61.15V60.54L19.82 57.32C19.5 57.34 19.22 57.34 18.97 57.34H17.17V56.72H20.79V57.22L18.39 60.02L17.92 60.54C18.26 60.51 18.57 60.49 18.87 60.49H20.92V61.14H17V61.15Z" fill="white"/>
<path d="M28.14 55.03H28.95V58.56C28.95 59.17 28.88 59.66 28.74 60.02C28.6 60.38 28.35 60.68 27.99 60.9C27.63 61.13 27.15 61.24 26.56 61.24C25.97 61.24 25.52 61.14 25.16 60.94C24.8 60.74 24.54 60.46 24.38 60.08C24.22 59.71 24.15 59.2 24.15 58.55V55.02H24.96V58.55C24.96 59.08 25.01 59.47 25.11 59.72C25.21 59.97 25.38 60.17 25.62 60.3C25.86 60.44 26.15 60.51 26.5 60.51C27.09 60.51 27.52 60.38 27.77 60.11C28.02 59.84 28.15 59.32 28.15 58.55V55.02L28.14 55.03Z" fill="white"/>
<path d="M30.2 61.15V56.72H30.87V57.35C31.2 56.86 31.67 56.62 32.28 56.62C32.55 56.62 32.79 56.67 33.02 56.76C33.24 56.86 33.41 56.98 33.52 57.14C33.63 57.3 33.71 57.48 33.75 57.69C33.78 57.83 33.79 58.07 33.79 58.42V61.14H33.04V58.44C33.04 58.13 33.01 57.9 32.95 57.75C32.89 57.6 32.79 57.48 32.64 57.39C32.49 57.3 32.32 57.25 32.12 57.25C31.8 57.25 31.52 57.35 31.29 57.55C31.06 57.75 30.94 58.14 30.94 58.71V61.13H30.19L30.2 61.15Z" fill="white"/>
<path d="M34.96 55.89V55.04H35.71V55.89H34.96ZM34.96 61.15V56.72H35.71V61.15H34.96Z" fill="white"/>
<path d="M38.06 61.15L36.39 56.72H37.19L38.14 59.37C38.24 59.66 38.34 59.95 38.43 60.26C38.5 60.03 38.59 59.75 38.71 59.42L39.69 56.72H40.46L38.78 61.15H38.06Z" fill="white"/>
<path d="M44.15 59.72L44.92 59.82C44.8 60.27 44.57 60.62 44.24 60.87C43.91 61.12 43.49 61.24 42.97 61.24C42.32 61.24 41.81 61.04 41.43 60.64C41.05 60.24 40.86 59.68 40.86 58.96C40.86 58.24 41.05 57.64 41.44 57.22C41.82 56.81 42.32 56.6 42.93 56.6C43.54 56.6 44.01 56.8 44.38 57.21C44.76 57.61 44.94 58.18 44.94 58.91C44.94 58.95 44.94 59.02 44.94 59.11H41.63C41.66 59.6 41.8 59.97 42.04 60.23C42.29 60.49 42.6 60.62 42.97 60.62C43.25 60.62 43.48 60.55 43.68 60.4C43.88 60.25 44.03 60.02 44.14 59.7L44.15 59.72ZM41.68 58.51H44.16C44.13 58.14 44.03 57.86 43.87 57.67C43.63 57.38 43.32 57.24 42.94 57.24C42.59 57.24 42.3 57.36 42.07 57.59C41.83 57.82 41.7 58.13 41.68 58.52V58.51Z" fill="white"/>
<path d="M45.86 61.15V56.72H46.53V57.39C46.7 57.08 46.86 56.87 47.01 56.77C47.16 56.67 47.32 56.62 47.49 56.62C47.74 56.62 48 56.7 48.26 56.86L48 57.56C47.82 57.45 47.63 57.4 47.45 57.4C47.29 57.4 47.14 57.45 47.01 57.55C46.88 57.65 46.79 57.79 46.73 57.96C46.65 58.23 46.61 58.52 46.61 58.84V61.16H45.86V61.15Z" fill="white"/>
<path d="M48.41 59.83L49.15 59.71C49.19 60.01 49.31 60.24 49.5 60.39C49.69 60.55 49.96 60.63 50.3 60.63C50.64 60.63 50.9 60.56 51.07 60.42C51.24 60.28 51.32 60.11 51.32 59.92C51.32 59.75 51.25 59.62 51.1 59.52C51 59.45 50.74 59.37 50.33 59.27C49.78 59.13 49.4 59.01 49.18 58.91C48.97 58.81 48.81 58.67 48.7 58.49C48.59 58.31 48.54 58.11 48.54 57.9C48.54 57.7 48.58 57.52 48.68 57.35C48.77 57.18 48.89 57.04 49.05 56.93C49.17 56.84 49.33 56.77 49.53 56.71C49.73 56.65 49.95 56.62 50.18 56.62C50.53 56.62 50.83 56.67 51.1 56.77C51.36 56.87 51.56 57.01 51.68 57.18C51.8 57.35 51.89 57.58 51.94 57.87L51.21 57.97C51.18 57.74 51.08 57.56 50.92 57.44C50.76 57.31 50.53 57.25 50.24 57.25C49.89 57.25 49.65 57.31 49.5 57.42C49.35 57.53 49.28 57.67 49.28 57.82C49.28 57.92 49.31 58.01 49.37 58.08C49.43 58.16 49.53 58.23 49.66 58.28C49.74 58.31 49.96 58.37 50.32 58.47C50.85 58.61 51.22 58.73 51.43 58.82C51.64 58.91 51.8 59.04 51.92 59.21C52.04 59.38 52.1 59.6 52.1 59.85C52.1 60.1 52.03 60.34 51.88 60.56C51.73 60.78 51.52 60.95 51.25 61.07C50.98 61.19 50.66 61.25 50.32 61.25C49.74 61.25 49.31 61.13 49 60.89C48.7 60.65 48.5 60.3 48.42 59.83H48.41Z" fill="white"/>
<path d="M52.98 55.89V55.04H53.73V55.89H52.98ZM52.98 61.15V56.72H53.73V61.15H52.98Z" fill="white"/>
<path d="M56.51 60.48L56.61 61.14C56.4 61.18 56.21 61.21 56.04 61.21C55.77 61.21 55.56 61.17 55.41 61.08C55.26 60.99 55.15 60.88 55.09 60.74C55.03 60.6 55 60.3 55 59.86V57.32H54.45V56.73H55V55.63L55.75 55.18V56.73H56.51V57.32H55.75V59.9C55.75 60.11 55.76 60.25 55.79 60.31C55.82 60.37 55.86 60.42 55.92 60.45C55.98 60.49 56.07 60.5 56.18 60.5C56.26 60.5 56.37 60.5 56.51 60.47V60.48Z" fill="white"/>
<path d="M57.21 62.86L57.12 62.16C57.28 62.2 57.43 62.23 57.55 62.23C57.72 62.23 57.85 62.2 57.95 62.15C58.05 62.1 58.13 62.02 58.2 61.92C58.25 61.84 58.32 61.66 58.43 61.36C58.44 61.32 58.47 61.26 58.5 61.18L56.81 56.73H57.61L58.54 59.28C58.66 59.6 58.77 59.94 58.86 60.3C58.95 59.97 59.05 59.63 59.17 59.31L60.12 56.73H60.87L59.2 61.24C59.02 61.73 58.88 62.06 58.78 62.24C58.65 62.49 58.49 62.67 58.32 62.78C58.15 62.9 57.94 62.95 57.7 62.95C57.56 62.95 57.39 62.92 57.21 62.86Z" fill="white"/>
<path d="M63.61 58.94C63.61 58.12 63.84 57.51 64.29 57.12C64.67 56.79 65.14 56.63 65.68 56.63C66.29 56.63 66.79 56.83 67.17 57.23C67.56 57.63 67.75 58.18 67.75 58.88C67.75 59.45 67.66 59.9 67.49 60.23C67.32 60.56 67.07 60.81 66.74 60.99C66.41 61.17 66.06 61.26 65.67 61.26C65.05 61.26 64.55 61.06 64.17 60.66C63.79 60.26 63.6 59.69 63.6 58.94H63.61ZM64.38 58.94C64.38 59.51 64.5 59.93 64.75 60.21C65 60.49 65.31 60.63 65.68 60.63C66.05 60.63 66.36 60.49 66.61 60.2C66.86 59.92 66.98 59.48 66.98 58.9C66.98 58.35 66.86 57.94 66.61 57.66C66.36 57.38 66.05 57.24 65.68 57.24C65.31 57.24 64.99 57.38 64.75 57.66C64.5 57.94 64.38 58.36 64.38 58.93V58.94Z" fill="white"/>
<path d="M68.81 61.15V57.31H68.15V56.72H68.81V56.25C68.81 55.95 68.84 55.73 68.89 55.59C68.96 55.4 69.09 55.24 69.27 55.12C69.45 55 69.71 54.94 70.04 54.94C70.25 54.94 70.48 54.97 70.74 55.02L70.63 55.67C70.47 55.64 70.33 55.63 70.19 55.63C69.96 55.63 69.8 55.68 69.71 55.78C69.61 55.88 69.57 56.06 69.57 56.33V56.74H70.43V57.33H69.57V61.17H68.82L68.81 61.15Z" fill="white"/>
<path d="M74.88 61.15V55.75H72.86V55.03H77.7V55.75H75.68V61.15H74.87H74.88Z" fill="white"/>
<path d="M80.53 59.72L81.3 59.82C81.18 60.27 80.95 60.62 80.62 60.87C80.29 61.12 79.87 61.24 79.35 61.24C78.7 61.24 78.19 61.04 77.81 60.64C77.43 60.24 77.24 59.68 77.24 58.96C77.24 58.24 77.43 57.64 77.82 57.22C78.2 56.81 78.7 56.6 79.31 56.6C79.92 56.6 80.39 56.8 80.76 57.21C81.13 57.61 81.32 58.18 81.32 58.91C81.32 58.95 81.32 59.02 81.32 59.11H78.01C78.04 59.6 78.18 59.97 78.42 60.23C78.67 60.49 78.98 60.62 79.35 60.62C79.63 60.62 79.86 60.55 80.06 60.4C80.26 60.25 80.41 60.02 80.52 59.7L80.53 59.72ZM78.06 58.51H80.54C80.51 58.14 80.41 57.86 80.25 57.67C80.01 57.38 79.7 57.24 79.32 57.24C78.97 57.24 78.68 57.36 78.45 57.59C78.21 57.82 78.08 58.13 78.06 58.52V58.51Z" fill="white"/>
<path d="M85.14 59.53L85.87 59.63C85.79 60.14 85.58 60.54 85.25 60.82C84.92 61.11 84.51 61.25 84.03 61.25C83.43 61.25 82.94 61.05 82.57 60.66C82.2 60.26 82.02 59.7 82.02 58.96C82.02 58.48 82.1 58.06 82.26 57.7C82.42 57.34 82.66 57.07 82.98 56.89C83.3 56.71 83.66 56.62 84.04 56.62C84.52 56.62 84.91 56.74 85.22 56.99C85.52 57.23 85.72 57.58 85.81 58.03L85.08 58.14C85.01 57.84 84.89 57.62 84.71 57.47C84.53 57.32 84.32 57.24 84.07 57.24C83.69 57.24 83.39 57.38 83.15 57.65C82.91 57.92 82.8 58.35 82.8 58.94C82.8 59.53 82.91 59.97 83.14 60.24C83.37 60.51 83.67 60.64 84.03 60.64C84.32 60.64 84.57 60.55 84.77 60.37C84.97 60.19 85.09 59.91 85.14 59.53Z" fill="white"/>
<path d="M86.51 61.15V55.03H87.26V57.23C87.61 56.82 88.05 56.62 88.58 56.62C88.91 56.62 89.19 56.68 89.43 56.81C89.67 56.94 89.84 57.12 89.95 57.35C90.05 57.58 90.11 57.91 90.11 58.34V61.15H89.36V58.34C89.36 57.97 89.28 57.69 89.12 57.52C88.96 57.35 88.73 57.26 88.43 57.26C88.21 57.26 88 57.32 87.81 57.43C87.61 57.55 87.47 57.7 87.39 57.9C87.31 58.1 87.27 58.37 87.27 58.72V61.14H86.52L86.51 61.15Z" fill="white"/>
<path d="M91.26 61.15V56.72H91.93V57.35C92.26 56.86 92.73 56.62 93.34 56.62C93.61 56.62 93.85 56.67 94.08 56.76C94.3 56.86 94.47 56.98 94.58 57.14C94.69 57.3 94.77 57.48 94.81 57.69C94.84 57.83 94.85 58.07 94.85 58.42V61.14H94.1V58.44C94.1 58.13 94.07 57.9 94.01 57.75C93.95 57.6 93.85 57.48 93.7 57.39C93.55 57.3 93.38 57.25 93.18 57.25C92.86 57.25 92.58 57.35 92.35 57.55C92.12 57.75 92 58.14 92 58.71V61.13H91.25L91.26 61.15Z" fill="white"/>
<path d="M95.73 58.94C95.73 58.12 95.96 57.51 96.41 57.12C96.79 56.79 97.26 56.63 97.8 56.63C98.41 56.63 98.91 56.83 99.29 57.23C99.68 57.63 99.87 58.18 99.87 58.88C99.87 59.45 99.78 59.9 99.61 60.23C99.44 60.56 99.19 60.81 98.86 60.99C98.53 61.17 98.18 61.26 97.79 61.26C97.17 61.26 96.67 61.06 96.29 60.66C95.91 60.26 95.72 59.69 95.72 58.94H95.73ZM96.5 58.94C96.5 59.51 96.62 59.93 96.87 60.21C97.12 60.49 97.43 60.63 97.8 60.63C98.17 60.63 98.48 60.49 98.73 60.2C98.98 59.92 99.1 59.48 99.1 58.9C99.1 58.35 98.98 57.94 98.73 57.66C98.48 57.38 98.17 57.24 97.8 57.24C97.43 57.24 97.11 57.38 96.87 57.66C96.62 57.94 96.5 58.36 96.5 58.93V58.94Z" fill="white"/>
<path d="M100.74 61.15V55.03H101.49V61.15H100.74Z" fill="white"/>
<path d="M102.38 58.94C102.38 58.12 102.61 57.51 103.06 57.12C103.44 56.79 103.9 56.63 104.45 56.63C105.06 56.63 105.56 56.83 105.94 57.23C106.33 57.63 106.52 58.18 106.52 58.88C106.52 59.45 106.43 59.9 106.26 60.23C106.09 60.56 105.84 60.81 105.51 60.99C105.18 61.17 104.83 61.26 104.44 61.26C103.82 61.26 103.32 61.06 102.94 60.66C102.56 60.26 102.37 59.69 102.37 58.94H102.38ZM103.15 58.94C103.15 59.51 103.27 59.93 103.52 60.21C103.77 60.49 104.08 60.63 104.45 60.63C104.82 60.63 105.13 60.49 105.38 60.2C105.63 59.92 105.75 59.48 105.75 58.9C105.75 58.35 105.63 57.94 105.38 57.66C105.13 57.38 104.82 57.24 104.45 57.24C104.08 57.24 103.76 57.38 103.52 57.66C103.27 57.94 103.15 58.36 103.15 58.93V58.94Z" fill="white"/>
<path d="M107.27 61.52L108 61.62C108.03 61.85 108.12 62.01 108.26 62.11C108.45 62.25 108.7 62.32 109.02 62.32C109.37 62.32 109.64 62.25 109.83 62.11C110.02 61.97 110.15 61.78 110.21 61.53C110.25 61.38 110.27 61.06 110.26 60.57C109.93 60.96 109.52 61.15 109.03 61.15C108.42 61.15 107.95 60.93 107.62 60.49C107.29 60.05 107.12 59.52 107.12 58.91C107.12 58.49 107.2 58.1 107.35 57.74C107.5 57.38 107.72 57.11 108.02 56.91C108.31 56.72 108.65 56.62 109.04 56.62C109.56 56.62 109.99 56.83 110.33 57.26V56.72H111.03V60.55C111.03 61.24 110.96 61.73 110.82 62.02C110.68 62.31 110.46 62.53 110.15 62.7C109.85 62.87 109.47 62.95 109.03 62.95C108.5 62.95 108.07 62.83 107.75 62.59C107.42 62.35 107.27 62 107.28 61.52H107.27ZM107.89 58.86C107.89 59.44 108.01 59.86 108.24 60.13C108.47 60.4 108.76 60.53 109.11 60.53C109.46 60.53 109.74 60.4 109.98 60.13C110.21 59.87 110.33 59.45 110.33 58.88C110.33 58.31 110.21 57.93 109.97 57.66C109.73 57.39 109.44 57.25 109.1 57.25C108.76 57.25 108.48 57.38 108.25 57.66C108.02 57.93 107.9 58.33 107.9 58.87L107.89 58.86Z" fill="white"/>
<path d="M112.12 62.86L112.03 62.16C112.19 62.2 112.34 62.23 112.46 62.23C112.63 62.23 112.76 62.2 112.86 62.15C112.96 62.1 113.04 62.02 113.11 61.92C113.16 61.84 113.23 61.66 113.34 61.36C113.35 61.32 113.38 61.26 113.41 61.18L111.72 56.73H112.52L113.45 59.28C113.57 59.6 113.68 59.94 113.77 60.3C113.86 59.97 113.96 59.63 114.08 59.31L115.03 56.73H115.78L114.11 61.24C113.93 61.73 113.79 62.06 113.69 62.24C113.56 62.49 113.4 62.67 113.23 62.78C113.06 62.9 112.85 62.95 112.61 62.95C112.47 62.95 112.3 62.92 112.12 62.86Z" fill="white"/>
</svg>
