<svg width="596" height="192" viewBox="0 0 596 192" fill="none" xmlns="http://www.w3.org/2000/svg">
<g clip-path="url(#clip0_23_1667)">
<path d="M92.1835 57.7569L8.76562 113.368L236.956 172.305H381.427L572.139 184.697L453.057 39.3203L265.367 43.8539L92.1835 57.7569Z" stroke="white" stroke-width="1.75"/>
<path d="M50.1719 168.979L92.183 57.7555L170.161 86.7704L264.157 44.457" stroke="#010101" stroke-width="1.75"/>
<path d="M50.7768 168.376L389.587 119.715L452.755 39.3203L236.654 173.212L170.464 86.1674L8.76562 113.368" stroke="white" stroke-width="1.75"/>
<path d="M571.837 184.091L390.494 119.412L381.729 173.211" stroke="white" stroke-width="1.75"/>
<path d="M9.06716 122.132C14.0748 122.132 18.1343 118.073 18.1343 113.065C18.1343 108.058 14.0748 103.998 9.06716 103.998C4.05951 103.998 0 108.058 0 113.065C0 118.073 4.05951 122.132 9.06716 122.132Z" fill="#AE2335"/>
<path d="M92.4851 66.521C97.4928 66.521 101.552 62.4615 101.552 57.4539C101.552 52.4462 97.4928 48.3867 92.4851 48.3867C87.4775 48.3867 83.418 52.4462 83.418 57.4539C83.418 62.4615 87.4775 66.521 92.4851 66.521Z" fill="#AE2335"/>
<path d="M50.7761 177.746C55.7838 177.746 59.8433 173.686 59.8433 168.678C59.8433 163.671 55.7838 159.611 50.7761 159.611C45.7685 159.611 41.709 163.671 41.709 168.678C41.709 173.686 45.7685 177.746 50.7761 177.746Z" fill="#AE2335"/>
<path d="M170.464 96.1402C175.471 96.1402 179.531 92.0807 179.531 87.073C179.531 82.0654 175.471 78.0059 170.464 78.0059C165.456 78.0059 161.396 82.0654 161.396 87.073C161.396 92.0807 165.456 96.1402 170.464 96.1402Z" fill="#AE2335"/>
<path d="M236.956 181.373C241.963 181.373 246.023 177.313 246.023 172.305C246.023 167.298 241.963 163.238 236.956 163.238C231.948 163.238 227.889 167.298 227.889 172.305C227.889 177.313 231.948 181.373 236.956 181.373Z" fill="#AE2335"/>
<path d="M264.157 53.8277C269.165 53.8277 273.224 49.7682 273.224 44.7605C273.224 39.7529 269.165 35.6934 264.157 35.6934C259.149 35.6934 255.09 39.7529 255.09 44.7605C255.09 49.7682 259.149 53.8277 264.157 53.8277Z" fill="#AE2335"/>
<path d="M453.358 48.3863C458.366 48.3863 462.425 44.3268 462.425 39.3191C462.425 34.3115 458.366 30.252 453.358 30.252C448.351 30.252 444.291 34.3115 444.291 39.3191C444.291 44.3268 448.351 48.3863 453.358 48.3863Z" fill="#AE2335"/>
<path d="M389.887 128.177C394.895 128.177 398.955 124.118 398.955 119.11C398.955 114.102 394.895 110.043 389.887 110.043C384.88 110.043 380.82 114.102 380.82 119.11C380.82 124.118 384.88 128.177 389.887 128.177Z" fill="#AE2335"/>
<path d="M381.427 181.373C386.434 181.373 390.494 177.313 390.494 172.305C390.494 167.298 386.434 163.238 381.427 163.238C376.419 163.238 372.359 167.298 372.359 172.305C372.359 177.313 376.419 181.373 381.427 181.373Z" fill="#AE2335"/>
<path d="M571.837 192.253C576.844 192.253 580.904 188.194 580.904 183.186C580.904 178.179 576.844 174.119 571.837 174.119C566.829 174.119 562.77 178.179 562.77 183.186C562.77 188.194 566.829 192.253 571.837 192.253Z" fill="#AE2335"/>
<path d="M223.318 51.209V174.253H183.014V51.209H223.318ZM203.166 0C208.224 0 212.57 1.8176 216.205 5.4528C219.84 8.93 221.658 13.2764 221.658 18.4921C221.658 23.5498 219.84 27.8963 216.205 31.5315C212.57 35.1667 208.224 36.9843 203.166 36.9843C197.95 36.9843 193.525 35.1667 189.889 31.5315C186.412 27.8963 184.674 23.5498 184.674 18.4921C184.674 13.2764 186.412 8.93 189.889 5.4528C193.525 1.8176 197.95 0 203.166 0Z" fill="white"/>
<path d="M372.703 136.558C370.806 143.829 367.171 150.546 361.797 156.71C349.627 170.619 332.795 177.573 311.3 177.573C291.859 177.573 276.133 172.199 264.121 161.452C250.687 149.44 243.969 133.555 243.969 113.799C243.969 93.0937 250.924 76.4981 264.832 64.012C276.844 53.2644 291.78 47.8906 309.64 47.8906C331.293 47.8906 347.968 55.003 359.664 69.2277C369.937 81.7138 375.074 98.0727 375.074 118.303C375.074 119.726 375.074 120.99 375.074 122.097H283.561C283.878 130.948 286.485 137.902 291.385 142.959C296.285 147.859 302.923 150.309 311.3 150.309C321.573 150.309 329.397 145.725 334.771 136.558H372.703ZM335.482 99.0997C333.427 83.1363 324.971 75.1547 310.114 75.1547C295.099 75.1547 286.406 83.1363 284.036 99.0997H335.482Z" fill="white"/>
<path d="M518.502 52.8613L505.246 83.6942L505.081 84.0773L505.237 84.4638L522.974 128.36L523.904 130.664L524.829 128.358L549.77 66.1246L549.77 66.1232C554.005 55.509 563.886 52.8613 568.241 52.8613H594.459L544.848 173.106H502.452L488.458 130.968L487.602 128.393L486.582 130.908L469.465 173.106H425.37L377.94 52.8613H403.629C409.533 52.8613 414.103 55.3208 417.441 58.4277C420.795 61.5491 422.873 65.298 423.748 67.7551L423.748 67.7551L423.751 67.7646C426.859 76.2203 440.941 112.793 447.59 130.013L448.534 132.457L449.458 130.005L474.398 63.8853C474.399 63.885 474.399 63.8848 474.399 63.8845C476.058 59.5203 479.343 56.7695 482.846 55.0976C486.363 53.419 490.037 52.8613 492.309 52.8613H518.502Z" fill="#AD2838" stroke="white" stroke-width="2"/>
<path d="M46.3321 51.8613H19L67.5285 174.106H113.268L163.47 51.8613H135.58C130.746 51.8613 120.185 54.1951 116.615 63.53L91.514 129.653C84.8202 112.428 70.6522 75.8655 67.5285 67.4196C65.6692 62.2335 58.8268 51.8613 46.3321 51.8613Z" fill="white"/>
</g>
<defs>
<clipPath id="clip0_23_1667">
<rect width="596" height="192" fill="white"/>
</clipPath>
</defs>
</svg>
